<?xml version="1.0" encoding="utf-8"?>
<!-- Generator: Adobe Illustrator 18.1.1, SVG Export Plug-In . SVG Version: 6.00 Build 0)  -->
<svg version="1.1" id="Layer_1" xmlns="http://www.w3.org/2000/svg" xmlns:xlink="http://www.w3.org/1999/xlink" x="0px" y="0px"
	 viewBox="0 0 281 97" enable-background="new 0 0 281 97" xml:space="preserve">
<path fill="#FFFFFF" d="M3.4,49.5C3.4,65.8,16.6,79,32.9,79s29.5-13.2,29.5-29.5C62.4,33.2,49.2,20,32.9,20S3.4,33.2,3.4,49.5"/>
<path fill="#80BA27" d="M65.1,45c-0.1-0.5-0.6-0.9-1.7-0.9c-4.2,0.1-11.5,5.2-18.7,12.1c5.8,4.7,11.3,8,14.9,8.5
	c1.3,0.2,2.1-0.1,2.4-0.6C64.2,59.7,66.2,53,65.1,45 M21.7,62.5c2.9,2.9,7.1,2.1,9.6-0.8c1.5-1.8,3.1-3.5,4.6-5.1
	c-3.5-3.1-6.9-6.5-9.9-9.9c-1.9,1.9-3.7,3.8-4.7,4.9C19,54.2,18.1,58.8,21.7,62.5 M27.9,36.3c0.8-0.7,0.9-1.9,0.3-2.9
	c-0.5-0.8-1.8-1.2-2.8-0.4c-0.9,0.7-1.1,2.1-0.2,3.4c0.4,0.5,0.8,1,1.2,1.5C27,37.1,27.6,36.6,27.9,36.3 M57.2,66.3
	c-0.7,1.1-1.5,2.1-2.4,3c-3.8-1.1-9-4.5-14.4-8.9c-1.6,1.7-3.2,3.4-4.6,5.1c-4.6,5.3-12.3,6.2-17.4,1.9c-5.1-4.3-7.5-12.3-1.6-19.6
	c1-1.2,3.2-3.5,5.4-5.7c-0.5-0.6-1-1.3-1.5-1.9c-3.1-4-2.6-9.1,1.4-12.1c3.1-2.3,7.8-2,10.6,1.4c3.3,4.1,1.7,8.8-0.8,11.2
	c-0.4,0.4-1,1-1.7,1.7c3.1,3.4,6.5,6.8,9.9,9.9c7.9-7.6,15.6-12.7,20.1-13.9c0.5,1.2,0.9,2.3,1.2,3.6c1.6-1.1,2.5-2.4,2.2-3.1
	C59.2,26.1,47.1,17,32.9,17C15,17,0.4,31.5,0.4,49.5C0.4,67.4,15,82,32.9,82c10.6,0,19.9-5,25.9-12.8c0,0,0,0,0,0
	C59.3,68.5,58.5,67.3,57.2,66.3"/>
<path fill="#80BA27" d="M63.6,38.8c-0.1-0.4-0.6-0.7-1.4-0.7c-0.6,0-1.2,0.1-2,0.2c0.5,1.2,0.9,2.3,1.2,3.6
	C63,40.8,63.9,39.6,63.6,38.8"/>
<path fill="#80BA27" d="M58.8,69.1c0.5-0.7-0.3-1.8-1.6-2.9c-0.7,1.1-1.5,2.1-2.4,3c0.8,0.2,1.5,0.4,2.2,0.4
	C57.8,69.7,58.4,69.6,58.8,69.1"/>
<path fill="#572542" d="M88.6,26.6c1.5-1.3,3.5-2,5.8-2c1.9,0,3.9,0.6,4.2,0.7c0.2,0.1,0.4,0.1,0.7,0.1c0.8,0,1.6-0.5,1.8-1.2
	c0.2-0.5,0.2-1-0.1-1.5c-0.2-0.5-0.6-0.8-1.1-1c0,0-2.6-1-5.5-1c-7.3,0-12.2,5.1-12.2,12.6c0,7.5,4.9,12.6,12.2,12.6
	c2.4,0,4.8-0.7,5.5-0.9c1-0.4,1.5-1.5,1.1-2.5c-0.3-0.8-1-1.3-1.8-1.3c-0.2,0-0.5,0-0.7,0.1c-0.4,0.1-2.3,0.7-4.2,0.7
	c-2.3,0-4.3-0.7-5.8-2c-1.7-1.5-2.5-3.8-2.5-6.7S86.9,28.2,88.6,26.6"/>
<path fill="#572542" d="M109.8,21.1c-1.1,0-1.9,0.9-1.9,1.9v20.6c0,1.1,0.9,1.9,1.9,1.9c1.1,0,1.9-0.9,1.9-1.9V23
	C111.7,22,110.8,21.1,109.8,21.1"/>
<path fill="#572542" d="M136.2,21.1H120c-1.1,0-1.9,0.9-1.9,1.9c0,1.1,0.9,1.9,1.9,1.9h6.2v18.7c0,1.1,0.9,1.9,1.9,1.9
	c1.1,0,1.9-0.9,1.9-1.9V24.9h6.2c1.1,0,1.9-0.9,1.9-1.9C138.1,22,137.3,21.1,136.2,21.1"/>
<path fill="#572542" d="M161.7,21.5c-0.3-0.2-0.7-0.4-1.1-0.4c-0.6,0-1.2,0.3-1.6,0.8l-6.7,9.3l-6.5-9.2c-0.4-0.5-1-0.8-1.6-0.8
	c-0.4,0-0.8,0.1-1.1,0.4c-0.9,0.6-1.1,1.8-0.5,2.7l7.7,10.9v8.6c0,1.1,0.9,1.9,1.9,1.9c1.1,0,1.9-0.9,1.9-1.9v-8.6l7.9-10.9
	C162.8,23.3,162.6,22.1,161.7,21.5"/>
<path fill="#572542" d="M103.3,53.6c-0.2-0.1-0.4-0.1-0.7-0.1c-0.6,0-1.1,0.3-1.5,0.7l-7.6,9.2l-7.6-9.2c-0.4-0.4-0.9-0.7-1.5-0.7
	c-0.2,0-0.4,0-0.6,0.1c-0.8,0.3-1.3,1-1.3,1.8V76c0,1.1,0.9,1.9,1.9,1.9c1.1,0,1.9-0.9,1.9-1.9V60.4l5.7,7.2
	c0.3,0.4,0.9,0.7,1.5,0.7c0.6,0,1.2-0.3,1.5-0.7l5.7-7.2V76c0,1.1,0.9,1.9,1.9,1.9c1.1,0,1.9-0.9,1.9-1.9V55.4
	C104.5,54.6,104,53.9,103.3,53.6"/>
<path fill="#572542" d="M126.4,69.3h-8l3.9-9.3L126.4,69.3z M123.9,54.6c-0.3-0.7-0.9-1.1-1.7-1.1c-0.7,0-1.4,0.5-1.7,1.1l-8.8,20.7
	c-0.2,0.5-0.2,1,0,1.4c0.2,0.4,0.5,0.8,1,1c0.2,0.1,0.5,0.2,0.8,0.2c0.8,0,1.4-0.4,1.7-1.1l1.6-3.9H128l1.7,3.9
	c0.3,0.7,1,1.1,1.7,1.1c0.3,0,0.5-0.1,0.8-0.2c0.5-0.2,0.8-0.6,1-1c0.2-0.5,0.2-1,0-1.4L123.9,54.6z"/>
<path fill="#572542" d="M152.6,74.1h-8.3V55.4c0-1.1-0.9-1.9-1.9-1.9c-1.1,0-1.9,0.9-1.9,1.9V76c0,1.1,0.9,1.9,1.9,1.9h10.2
	c1.1,0,1.9-0.9,1.9-1.9C154.5,74.9,153.7,74.1,152.6,74.1"/>
<path fill="#572542" d="M173,74.1h-8.3V55.4c0-1.1-0.9-1.9-1.9-1.9c-1.1,0-1.9,0.9-1.9,1.9V76c0,1.1,0.9,1.9,1.9,1.9H173
	c1.1,0,1.9-0.9,1.9-1.9C174.9,74.9,174.1,74.1,173,74.1"/>
<path fill="#572542" d="M191,65l-5.8-2.1c-1.7-0.6-2.1-1-2.1-2.8c0-3,3.8-3.2,4.6-3.2c1.4,0,3.9,0.3,5.2,0.6c0.2,0,0.3,0.1,0.5,0.1
	c0.8,0,1.6-0.6,1.8-1.4c0.1-0.5,0.1-1-0.2-1.4c-0.3-0.4-0.7-0.8-1.1-0.9c-1.7-0.5-4.6-0.8-6.3-0.8c-2.2,0-4.2,0.6-5.7,1.7
	c-1.7,1.3-2.6,3.1-2.6,5.2c0,4.2,2.4,5.6,4.7,6.4l5.8,2c1.7,0.6,2.1,1,2.1,2.8c0,3-3.8,3.2-4.6,3.2c-1.5,0-4-0.3-5.3-0.6
	c-0.2,0-0.3-0.1-0.5-0.1c-0.9,0-1.6,0.6-1.8,1.4c-0.1,0.5-0.1,1,0.2,1.4c0.3,0.5,0.7,0.8,1.2,0.9c1.8,0.5,4.7,0.8,6.3,0.8
	c2.2,0,4.2-0.6,5.7-1.7c1.7-1.3,2.6-3.1,2.6-5.2C195.6,67.2,193.3,65.8,191,65"/>
<path fill="#80BA27" d="M222.1,66.3h-5.2v-9h5.3c1.6,0,4.4,1.5,4.4,4.4C226.7,64.2,224.6,66.3,222.1,66.3 M227.8,55.7
	c-1.6-1.4-3.6-2.2-5.5-2.2H215c-1.1,0-1.9,0.9-1.9,1.9V76c0,1.1,0.9,1.9,1.9,1.9c1.1,0,1.9-0.9,1.9-1.9v-5.9h5.2
	c4.6,0,8.4-3.8,8.4-8.4C230.6,59.4,229.6,57.2,227.8,55.7"/>
<path fill="#80BA27" d="M250.5,53.5h-11.2c-1.1,0-1.9,0.9-1.9,1.9V76c0,1.1,0.9,1.9,1.9,1.9c1.1,0,1.9-0.9,1.9-1.9v-7.3h7.6
	c1.1,0,1.9-0.9,1.9-1.9c0-1.1-0.9-1.9-1.9-1.9h-7.6v-7.6h9.3c1.1,0,1.9-0.9,1.9-1.9C252.4,54.3,251.5,53.5,250.5,53.5"/>
<path fill="#80BA27" d="M279.7,53.6c-0.2-0.1-0.4-0.1-0.7-0.1c-0.6,0-1.1,0.3-1.5,0.7l-7.6,9.2l-7.6-9.2c-0.4-0.4-0.9-0.7-1.5-0.7
	c-0.2,0-0.4,0-0.6,0.1c-0.8,0.3-1.3,1-1.3,1.8V76c0,1.1,0.9,1.9,1.9,1.9c1.1,0,1.9-0.9,1.9-1.9V60.4l5.7,7.2
	c0.3,0.4,0.9,0.7,1.5,0.7c0.6,0,1.2-0.3,1.5-0.7l5.7-7.2V76c0,1.1,0.9,1.9,1.9,1.9c1.1,0,1.9-0.9,1.9-1.9V55.4
	C280.9,54.6,280.5,53.9,279.7,53.6"/>
</svg>
