<?xml version="1.0" encoding="utf-8"?>
<!-- Generator: Adobe Illustrator 18.1.1, SVG Export Plug-In . SVG Version: 6.00 Build 0)  -->
<svg version="1.1" id="Layer_1" xmlns="http://www.w3.org/2000/svg" xmlns:xlink="http://www.w3.org/1999/xlink" x="0px" y="0px"
	 viewBox="0 0 660 751" enable-background="new 0 0 660 751" xml:space="preserve">
<g>
	<g>
		<path fill="#FAF8F6" d="M80.4,486.6l2.9,3.4c0,0,2.8-1.7,3.9-3.1c1-1.4,1.4-3.4,1.4-3.4l9.9-2c0,0,0.6,0.7,1.3,1.4
			c0.7,0.8,0.4,4.4,0.4,5.8c0,1.4,0.1,5.3,0.8,7.4s4.9,1.4,6,1c1-0.4,1.5-4.7,1.5-6.5c0-1.8,3.9-2.7,5.7-2.3c1.8,0.4,3.5,3,4.3,4.4
			c0.8,1.4,3.9,1.7,7.9,1.5c4-0.1,15.7-6.6,15.7-6.6c-0.9-1.8-6-6.6-6.7-7.4c-0.8-0.8-3.5-1.5-3.5-1.5c-0.7-5.3,4.4-9.2,4.4-9.2
			l-1.6-2.1l8.6-5.8l-1.9-1.7c0,0-0.4-2.8,0-6.5c0.4-3.6-5.6-13.1-8.1-16.1c-2.5-3-16.1-21-18-24.8l-0.6,16.3l6.4,4.3l-8.6,9.9
			l-5.2-4.7l-15.5,24.9l-6-5.2l-3.4,6.9l-19.8-9.4L75.5,434l2.6,13.7h10.7l-7.3-11.6l2.1-12.5l8.6-8.6l-0.4,5.6l8.6,1.3
			c0,0,0.9-5.1,1.3-8.6c0.4-3.4-3.9-8.2-3.9-8.2l13.7-3.9c-2.5-8.7-5.5-19.7-6.7-23.6c-1.9-6.4-6.2-22-6.9-26
			c-0.7-4-0.3-36.2-0.3-40.3c0-0.9,0-2.8,0.1-5.3l4.3,4l9-0.6l3.7,2c0,0,15.8-0.8,19.8-2.3l3.7-5.4c0,0,16.1,3.7,21.9,2.2
			c5.8-1.5,10.7-5,14-4.5s5.4,2.6,7.2,6.4c1.7,3.7,3.9,7.9,5,9.9c1.1,2,2.3,4.7,2.2,6.4c-0.1,1.7-2.3,8.4-4.5,10.4
			c-2.2,2-5.7,6.5-9.9,7.3s-10.1,3.3-10.7,4c-0.6,0.8-4.8,4.3-0.3,8.1c4.5,3.7,12.3,10.9,19.4,7.4c7.1-3.4,16.8-8.8,16.6-21.4
			c-0.2-12.6-0.5-21.3,2.6-22.5c3.1-1.2,4.8-1.2,4.8-1.2c3.3-0.2,7.2-0.5,12.3,3.5c5.1,3.9,9.3,6.5,10.9,7.7
			c1.1,0.8,3.5,2.3,5.4,4.4c0.9,1,1.7,2.2,2.1,3.5c0,0,3.4,12.8,5.1,15.4c1.7,2.6,9.3,9.5,16.6,4.2c7.3-5.3,14-11.8,17.5-12.9
			c3.6-1.1,13-3.1,13.8,3.6c0.8,6.7,0.1,14.1-5,20.5c-5.1,6.4-13.5,13.5-17.4,16.3c-3.9,2.8-9.5,6.7-8.1,14
			c1.3,6.8,6.8,17.6,16.9,16.8l0,0.1c0,0-19.7,26.1-21.7,28.2c-2,2.2-21.9,21.6-21.9,21.6l11,10.2L230,491.4l-47.9,41.6l-0.2,0.1
			l-24.7-38.3c0,0-8.2,0.5-9.6,0.5c-1.4,0-5.6,1.3-5.6,1.3s-1.4,4.8-0.1,6.1c1.3,1.3,2.1,2.3,2.1,2.3s0.5,3.4,0,4
			c-0.5,0.7-2.5,2.7-2.2,3.5c0.3,0.8,1,2.2,1,3c0,0.8,1.7,1.3,1.7,1.3s-0.1,11.7-0.1,12.3c0,0.7-0.5,4.8-1.4,5.5
			c-0.9,0.7-3.4,1.2-3.9,1.8c-0.5,0.7-1.2,4-1.2,4l-1.4,6.7c-2.9-1.8-10.3-2.2-10.3-2.2l-0.7,3.8c-3.2,1.3-9.1-0.5-9.1-0.5l0.9-4.7
			l-2-0.4l-9.9,11l1.6,2.1l-1.3,1.8l-7.5-6.8l0.4-3.8l-2.7-2.3l-2.8,1.4l-2.7-3.2l0.5-3.1l-3.4-2.3l-2.3-0.1l-5.2-3.1
			c0,0-2.6,2.5-3.6,3.1c-1,0.7-3.8,1.4-3.8,1.4s-3.4-2.1-3.8-2.2c-0.4-0.1-1-1.9-1.2-2.6c-0.1-0.7-2.5-3.6-3.5-3.9
			c-1-0.3-2.2-1.8-2.6-3.4c-0.4-1.5,1.4-2.8,2.5-4c1-1.2-0.5-4.4-1-5.6c-0.5-1.2,2.6-4.8,3.2-5.7c0.7-0.9,3.5-4.7,4-5.2
			c0.5-0.5,3.1-1.6,4-2.3c0.9-0.8,2.3-1.2,3-2.3c0.7-1.2-2.2-6-2.7-6.9c-0.5-0.9,1.9-2.2,2.8-3C78.3,491.4,80.4,486.6,80.4,486.6z"
			/>
	</g>
	<g>
		<path fill="#FAF8F6" d="M242,327.6l1.9,2.3l11.9-6.5l1.6-5.6l8.6-10c0,0,20.3-3.3,26.5-4c6.3-0.7,9.1-9.3,9.1-9.3l2.6-17.9l10-0.7
			l2.8,12.1l2.6-0.2l7,3.5l2.6-0.2c0,0,1.6-2.3,1.9-4.4c0.2-2.1-0.2-11.6-0.2-11.6l16.8,2.3l0.7-10.5c0,0,2.6,1.9,4.4,3.3
			c1.9,1.4,4.9,3,5.6,4.9c0.6,1.6,1,4.1,4.7,5.8c0.5,0.3,1.2,0.5,1.9,0.7c5.4,1.6,33.5,10.9,33.5,10.9s9.6-0.2,13,0.5
			c3.5,0.7,5.4,2.1,7.7,6.3c0.6,1,1.5,2.8,2.6,4.9l-0.1,0l-14.9,14l-4.7-4.4l-3.5,0.5c0,0-1.2,4.7-1.9,7c-0.7,2.3-2.1,9.1-2.1,9.1
			l-10.9,0.5c0,0-2.3,1.2-1.9,3c0.5,1.9,1.6,5.6,1.6,6.5c0,0.9-0.2,2.3-1.6,4.2l9.8,4.4c0,0,12.6,8.8,15.1,11.9c0,0,0,8.4,0.9,9.6
			l-4.7,10.7l-9.3-8.4l0.5,4.7l-5.6,4.2l-8.1,4.4l-4-9.5l-4.4,2.6c0,0,1.4,3.6,2.3,6.6l-0.1,0l-5.3,0.3c0,0-1.9-3.3-2.8-4l-1.7,1.7
			l-6.2-2.6c0,0-2,7.1-1.9,11l-1.9,0.6l-4.7-2.5l-0.9,3.4c0,0-1.7-1.7-4-0.9c-2.3,0.8-15.2,4-15.2,4l-0.5-1.5l-4.2-0.6l-0.6,3.1
			l-8.7-2.9L299.4,414c-2.7-3.6-5.7-7.5-5.7-7.5s-3.1,3.9-14.6,6.5c-0.7,0.2-1.5,0.3-2.2,0.3c-10.1,0.8-15.6-10-16.9-16.8
			c-1.4-7.3,4.2-11.2,8.1-14c3.9-2.8,12.3-9.9,17.4-16.3c5.1-6.3,5.7-13.8,5-20.5c-0.8-6.7-10.2-4.7-13.8-3.6
			c-3.6,1.1-10.2,7.6-17.5,12.9c-7.3,5.3-14.9-1.5-16.6-4.2c-1.7-2.6-5.1-15.4-5.1-15.4c-0.4-1.3-1.2-2.5-2.1-3.5l0.2-0.2L242,327.6
			z"/>
	</g>
	<g>
		<path fill="#FAF8F6" d="M559.7,445.3l4,4.9l-7.9,23.5l-22.2-18.2c0,0,5.6,24.9,6.6,30.1c1,5.2,4.3,17.3-5.8,29.9
			c-10.1,12.6-30.5,35.5-31.8,37c-0.6,0.7-2.7,2.8-4.9,4.9c-2.1-1.5-5.9-5.1-6.6-8.7c-0.7-3.7-3.5-12.8-3.5-16.1s0-11.9,0.2-16.5
			c0.2-4.7-2.6-2.1-5.4-1.6c-2.8,0.5-24.4,11.4-28.2,12.8c-3.7,1.4-14.7,0-17.9-0.5c-3.3-0.5-10.9,2.1-14.2,2.3
			c-3.3,0.2-14.7-4.9-18.9-7.2s-21.2-16.5-21.2-16.5s1.9-18.2,3.3-22.1c1.4-4,24.7-14.4,30.9-17.9c6.3-3.5,4.9-14,3.3-18.6
			c-1.6-4.7-11.6-9.3-14.7-10.7c-3-1.4-15.4-3.3-17.5-3.7c-2.1-0.5-2.8-0.9-3.5-2.3c-0.7-1.4-5.8-2.3-5.8-2.3s0.5-3.9,0.7-6.5
			c0.2-2.6-2.1-14.7-2.8-19.1c-0.7-4.4-1.2-10.9-1.2-13.3c0-0.7-0.3-2-0.7-3.5c-0.9-3-2.3-6.6-2.3-6.6l4.4-2.6l4,9.5l8.1-4.4
			l5.6-4.2l-0.5-4.7l9.3,8.4l4.7-10.7c-0.9-1.2-0.9-9.6-0.9-9.6c-2.6-3-15.1-11.9-15.1-11.9l-9.8-4.4c1.4-1.9,1.6-3.3,1.6-4.2
			c0-0.9-1.2-4.7-1.6-6.5c-0.5-1.9,1.9-3,1.9-3l10.9-0.5c0,0,1.4-6.8,2.1-9.1c0.7-2.3,1.9-7,1.9-7l3.5-0.5l4.7,4.4l14.9-14l0.1,0
			c3.2,6.2,7.5,15.5,6.5,18.7c-1.4,4.2-6.3,18.8,1.6,22.8c7.9,3.9,16.8,8.8,19.3,11.9c2.6,3,5.8,7.4,7.7,7.7
			c1.9,0.2,9.5,2.1,12.8,4.4c3.3,2.3,16.1,13.5,19.6,15.1c3.5,1.6,26.5,15.8,30.5,17.7c3.9,1.9,33.7,21.9,39.1,27l-2.1,2.6l6.6,8.7
			L559.7,445.3z"/>
	</g>
	<g>
		<path fill="#FAF8F6" d="M637.2,394.6l1.7,8.2l8.3-1.7c0,0,2.8,5,6.1,5c3.3,0,9.4,2.2,6.6,4.4c-2.8,2.2-6.1,2.2-3.9,5
			c2.2,2.8,3.3,5,3.3,5l-21-3.9c0,0,0,6.1,3.9,7.7c3.9,1.7,11.6,4.4,11.6,8.3l-14.4,2.8c0,0,0,3.9,3.3,6.1c3.3,2.2,9.9,3.3,9.9,7.7
			s-0.5,8.3,0,12.7c0.6,4.4,2.8,12.7,2.8,12.7s-13.3-5-19.3-4.4c-6.1,0.5-24.9,0-24.9,0s0-7.7-2.2-8.3c-2.2-0.6-5.5-5-2.8-8.3
			c2.8-3.3,4.4-4.4,6.1-6.1c1.7-1.7,7.7-13.8,3.9-12.1c-3.9,1.6-7.7,8.3-7.7,3.9c0-4.4,0.6-11.6,0.6-11.6l-8.8-0.5l-0.5-7.7v-0.1
			c0,0,8.8,0,13.2-2.2c4.4-2.2,5.5-9.9,6.1-14.4c0.6-4.4,9.9-2.2,9.9-2.2l6.6-8.3l0.3-0.2C636.5,393.1,636.9,394,637.2,394.6z"/>
	</g>
	<g>
		<path fill="#FAF8F6" d="M309.5,633.8l-16.9-7.1l3.6-9.6l-1.7-3.3l1.7-11.8c2.2-0.2,2.8-3.4,2.8-3.4l-3.1-1.1l2-9.6l-2.8,0.2
			l-2.3-3.7c0,0-0.9,0.5-1.7,0.6c-0.8,0.1-0.6-1.2-1.7-3.4c-1.1-2.2,2.3-2.3,4-2.6c1.7-0.3,0.6-5.4,0.6-6.4s0.3-1.2,1.1-1.7
			c0.8-0.5,0.6-1.4,0.6-2.5c0-1.1,0.5-1.9,0.9-2.5s-0.1-1.1-1.1-1.4c-0.9-0.3-0.2-1.7,0.1-2.9c0.3-1.2-1.7,0.5-2.9,0.5
			c-1.2,0,0.3-3,0.9-4c0.6-1.1,4.3-1.9,4.3-1.9l5.1-14.1l-8.2-2l0.5-2.9l3-3.4c0,0,0.1-0.6,1.1-4.5c0.9-3.9-3.3-6.1-3.3-6.1l1.4-2.8
			c0,0,8.2,4.5,10.9,5.6c2.6,1.1,12.4,0.8,12.4,0.8l-0.1-24.5l7.1-11.3c-2.2-0.2-6.4-1.9-6.4-1.9l0.9-2.8l3.9,0.5l-4.5-4.8l-0.1-3.7
			c0,0-0.6-0.5-1.2-1.5c-0.6-1.1,0-2,0.1-3.1c0.2-1.1,4.4-3.9,5.1-4.8c0.8-0.9,0.9-2.2,1.1-3.1c0.1-0.9,2.5-3.6,2.5-3.6l-1.5-6.5
			l-4.4,0.8l-3.6-2l0.3-7.1c-1.4-1.1-7.6-9.2-9-12.6c-1.4-3.4-6.4-12.4-7.3-14.3c-0.4-0.8-2.3-3.4-4.4-6.2l16.2-19.6l8.7,2.9
			l0.6-3.1l4.2,0.6l0.5,1.5c0,0,12.9-3.3,15.2-4c2.3-0.8,4,0.9,4,0.9l0.9-3.4l4.7,2.5l1.9-0.6c-0.1-3.9,1.9-11,1.9-11l6.2,2.6
			l1.7-1.7c0.9,0.8,2.8,4,2.8,4l5.3-0.3l0.1,0c0.4,1.4,0.7,2.7,0.7,3.5c0,2.3,0.5,8.8,1.2,13.3c0.7,4.4,3,16.5,2.8,19.1
			c-0.2,2.6-0.7,6.5-0.7,6.5s5.1,0.9,5.8,2.3c0.7,1.4,1.4,1.9,3.5,2.3c2.1,0.5,14.4,2.3,17.5,3.7c3,1.4,13,6.1,14.7,10.7
			c1.6,4.7,3,15.1-3.3,18.6c-6.3,3.5-29.5,14-30.9,17.9c-1.4,3.9-3.3,22.1-3.3,22.1s17,14.2,21.2,16.5s15.6,7.4,18.9,7.2
			c3.3-0.2,10.9-2.8,14.2-2.3c3.3,0.5,14.2,1.9,17.9,0.5c3.7-1.4,25.4-12.3,28.2-12.8c2.8-0.5,5.6-3,5.4,1.6
			c-0.2,4.7-0.2,13.3-0.2,16.5s2.8,12.3,3.5,16.1c0.7,3.6,4.5,7.3,6.6,8.7c-2.4,2.3-4.9,4.7-5.7,5.3c-1.5,1.3-38,36.7-51.9,46
			s-46,30.6-46,30.6s-5.3,5.1-15.2,4.3c-9.9-0.8-56-4.3-56-4.3C321.7,639.2,309.5,633.8,309.5,633.8z"/>
	</g>
	<g>
		<path fill="#FAF8F6" d="M585.5,230.8c0,0,2.7,0.4,5.2,1.2c2.5,0.8,4.9,1.2,4.9,5.3c0,4.2-4.5,3.8-5.4,3.6c-0.9-0.1-0.1-1.3,0-2.6
			c0.1-1.3-1.2-1.4-2.1-2.3c-0.9-0.9-6.5,0-7.9,0c-1.4,0-2.1,7-2.1,7l-6.5,3.1l-0.3,3.1l-2.5,0.8l0.3,2.1l-4.8,1.6l-4.4-4.7
			l-4.3,4.3l-10.5-11.7l10.1-7.9c0,0,1-1.3,2-2.2c0.9-0.9,9.9-4.2,9.9-4.2l-0.5-4l6.1-2.6l1,1.8c0,0-3.9,1.7-4.3,3.1
			c-0.4,1.4,1.7,4,1.7,4l5.5-1l0.9,2.3l7.4-2.5L585.5,230.8z"/>
	</g>
	<g>
		<path fill="#FAF8F6" d="M400.1,175l-5.2-3l2.4-3.4l5.1,1.9l1.8,3.7l-1.4,1.5l2.7,3.1c-3.1,2-0.2,5.3-0.2,5.3l3.4-1.5l3.4,1.6
			l9.7,1.1l0.8-0.8c0,0,0,0,3.4-3.7c3.4-3.7,2.1-10.7,1.7-13c-0.3-2.3-0.9-6.5-0.9-6.5l-18.3-0.1l8.2-6.6l-1.2-1.4l12-11.7l-1.9-1.4
			l1-2.2l5.2,3.4l6.1-2.7l-0.5-3.3l4.1-4.1c14.3,13.3,43.8,40.7,43.8,40.7l42.8,39.1c0,0,10.4,10.5,11.4,20.9
			c1,10.4,4.4,74.1,4.4,74.1s0.3,12.3,0.1,16c-0.1,3.6,1,33.9,1,33.9s23.4-1.8,34.3-8.4l6.5,2.2l1.7,10l-9.9-0.9l-5.7,7
			c0,0-7.1,0.7-9.9,4c-2.8,3.3-8.3,15.5-5,18.2c3.3,2.8,9.4,4.4,9.4,4.4l8.9,0.2l-0.4,3.5l7.7,0.5l0.4-3.8l1.6-2.6l1.8,2.1l2.9-1.4
			l4.7-0.4l8.2-3.2l1.3,1.3c0,0,6.6-2.5,7.1-4.2c0.5-1.7,1.2-5.3,2.5-5.8c1.3-0.5,5.1-1,5.1-1s8,3.5,10.3,5.5
			c1.7,1.5,5.4,5.9,7.5,9.2l-0.3,0.2l-6.6,8.3c0,0-9.4-2.2-9.9,2.2c-0.5,4.4-1.7,12.1-6.1,14.4c-4.4,2.2-13.2,2.2-13.2,2.2v0.1
			c-3.9,0.7-8.8,1.9-9.7,1.9c-1.4,0-5.2,0.1-6,0.8c-0.8,0.7-14.4,16.4-14.4,16.4l-10.8-9.5l-0.2,0.3c-5.4-5.1-35.2-25.1-39.1-27
			c-4-1.9-27-16.1-30.5-17.7c-3.5-1.6-16.3-12.8-19.6-15.1c-3.3-2.3-10.9-4.2-12.8-4.4c-1.9-0.2-5.1-4.7-7.7-7.7
			c-2.6-3-11.4-7.9-19.3-11.9c-7.9-4-3-18.6-1.6-22.8c1-3.1-3.3-12.4-6.5-18.7c-1.1-2.1-2-3.8-2.6-4.9c-2.3-4.2-4.2-5.6-7.7-6.3
			c-3.5-0.7-13-0.5-13-0.5s-28.2-9.3-33.5-10.9c-0.7-0.2-1.3-0.4-1.9-0.7v-17.3c0,0,11.4-25,12.3-27.2c0.9-2.2,5.2-11.4,6.2-15
			c0.9-3.6-0.2-22.6-0.2-22.6c1.4,0.9,3.7,0.5,5.4-0.5c1.6-0.9,2-4.8,2-4.8l12.3-12.1l-3.4-2.2L400.1,175z"/>
	</g>
	<g>
		<path fill="#FAF8F6" d="M83.3,300.6c-0.1,0.9,0.3,4.9,0.1,5.6c-0.1,0.7-0.9,1.7-1.4,0.9c-0.5-0.8-2.1-2.6-2.8-2.1
			c-0.8,0.5-2.2,1.6-2.2,2.1c0,0.5-0.1,3.8,0.7,3c0.8-0.8,0.9-1.4,1.7-1.3c0.8,0.1,1.5-0.3,1.3,1c-0.3,1.3-0.8,3.1-0.8,3.1l-3.1,0.9
			v2l-7.1-1l1.8-2.6l-6.4-1.3l0.3,6.5l-17.2,2.4c0,0-0.4-2.6-0.9-5.6c-0.4-3,5.6-2.2,5.6-2.2s0-5.6,0.9-9c0.9-3.4,9.4-4.3,9.4-4.3
			l1.7-4.3l-21-9.9l0.9-6.9l-9.5-0.4l0.4-7.3l-3.4-0.9v-15l37.8,3.9c0,0,11.6-12,15.5-14.2c3.9-2.1,12.5,0,15.5,0c3,0,6,5.6,6,5.6
			l2.6-3.9l6.5-0.8c2.5-12.6,5.1-31.1,5.1-31.1c-5-2.2-13.3-0.3-13.3-0.3s-2.4,1-4.9,1.9c-2.4,0.9-7.3,6.4-8.3,8.3
			c-1,1.9-1.7,3.1-3.1,3.7c-1.4,0.5-3.6-5.7-3.6-5.7l-2.6,0.3c0,0,0.7,3.8-0.2,5.4c-0.9,1.5-2.9,0.2-3.6-0.9c-0.7-1,0.2-4.2,0.2-5.9
			c0-1.7-5-1.4-5-1.4l2.8-4.5l-1.6-5.7l-5.2-0.4l-0.2-3.3l4.7-2.4c0,0-3.6-3.1-4.5-4c-0.9-0.9-0.5-3.1-0.5-4.2c0-1,7.1-3.8,7.1-3.8
			c-3.1-2.6-14-3.3-14-3.3l-0.2-2.8c0,0,2.4-0.9,3.8-1.6c1.4-0.7,1.7-3.5,2.6-5.2c0.9-1.7,0.7-9.9,0.9-11.8c0.2-1.9,4-5,5-5.5
			c1-0.5,0.4-1.4,0.7-2.4c0.3-1,5-0.5,6.2-0.5s2.9-0.3,4.7-0.5c1.7-0.2,0.9-4.7,1.2-5.4c0.4-0.7,5.7-1.7,7.1-1.7
			c1.4,0,3.8,0.9,4.3,0.9c0.5,0,5.5-1.2,5.5-1.2l1.9,1.9c0,0-0.4,1.6-1.2,3.1c-0.9,1.6,0.9,2.4,1.2,3.1c0.3,0.7-0.4,1.7-1.2,2.6
			c-0.9,0.9,1.2,2.9,1.5,3.8c0.4,0.9-2.6,1.9-3.5,2.6c-0.9,0.7-0.3,3.3-0.2,4.7c0.2,1.4,0.7,1.7,2.3,1.9c1.6,0.2,3.1-0.9,3.6-1.2
			c0.5-0.3,0.9,0,2.8,0.5c1.9,0.5,1.2-0.9,1.7-1.5c0.5-0.7,1.9,0.7,2.3,1.5c0.3,0.9,3.6-1.4,3.6-1.4s1.2-3.6,3.6-10.7
			c2.4-7.1,13.2-16.3,13.2-16.3l-6.1-5.7c0,0-0.3-1.7-0.3-2.9s-2.1-0.2-2.6,0.3c-0.5,0.5-3.1,0.9-4.3,0.7c-1.2-0.2-3.5-1.2-4.3-2.1
			c-0.9-0.9-2.1-0.2-3.3-0.2s-6.4-1-6.4-1s-1.2-1.4-1.7-2.3c-0.5-0.9-4.5-0.9-5.4-2.1c-0.9-1.2-2.4-2.9-3.5-4.8
			c-1-1.9,1.7-3.5,2.4-4c0.7-0.5,0.5-2.4-0.2-3.3c-0.7-0.9-1.2-2.4-1.2-3.3c0-0.9,2.4-2.9,3.6-4c1.2-1,0.2-2.3-1-3.6
			c-1.2-1.4-4.8,0.3-6.2,0.7c-1.4,0.4-2.4-3.5-2.4-4c0-0.5,0.9-1.9,1.6-2.6c0.7-0.7-2.3-2.8-3.5-3.6c-1.2-0.9-1.6-2.4-1-3.1
			c0.5-0.7,6.6-2.4,6.6-2.4l0.2-2.4l-2.8-0.9L95.9,85l3.3-2.4c0,0,0,0,0-0.1l0.1,0l7.2-4.5l0.7-2.5l4.9-3l-0.9,3.4l7.9,0.5h0
			L119,88.2c0,0-0.1,3.9,3.1,4.7c3.2,0.8,3.9,1,3.9,1l5.8,14.9c0,0,0.6,2.6,0.5,4c-0.1,1.4-0.4,4.8,1.4,6.1c1.8,1.3,3.6,2.5,3.6,2.5
			l-0.3,6.9l5.6,2.2l0.9,1.8l10.4,1.6l6.6-3l1,2.5l1.5-0.6l0.1,0.3c0,0,8.5,10.4,10.7,11.5c2.2,1.1,4.5,2,4.5,2s0,6.8,0.8,8.8
			c0.8,2,22.3,54.3,22.3,55.9c0,1.6-0.1,3.9-3.3,4.2l2.5,3.3l12.3-0.6l2.2,4.8c0,0-7.6,6.1-6.5,13.5c1.1,7.4,3.3,10.7,3.9,12.4
			c0.6,1.7,10.9,21.4,12.1,28.2c1.2,6.8,2.3,21.1,3.9,24.7c1.5,3.6,13.4,25.8,13.4,25.8l-6.5,4.2l-0.2,0.2c-1.8-2.1-4.3-3.6-5.4-4.4
			c-1.6-1.2-5.8-3.7-10.9-7.7c-5.1-4-9.1-3.7-12.3-3.5c0,0-1.7-0.1-4.8,1.2c-3.1,1.2-2.8,9.9-2.6,22.5c0.1,12.6-9.5,18-16.6,21.4
			c-7.1,3.4-14.9-3.7-19.4-7.4c-4.5-3.7-0.3-7.3,0.3-8.1c0.6-0.8,6.5-3.3,10.7-4s7.8-5.3,9.9-7.3c2.2-2,4.4-8.7,4.5-10.4
			c0.1-1.7-1.1-4.3-2.2-6.4c-1.1-2-3.3-6.2-5-9.9c-1.7-3.7-3.9-5.9-7.2-6.4s-8.2,3-14,4.5c-5.7,1.5-21.9-2.2-21.9-2.2l-3.7,5.4
			c-4,1.5-19.8,2.3-19.8,2.3l-3.7-2l-9,0.6l-4.3-4c0.2-8.2,0.8-22.1,0.8-22.1l-7.1,4.8l-0.7,3.6C90.8,292.6,83.4,299.7,83.3,300.6z"
			/>
	</g>
	<g>
		<path fill="#FAF8F6" d="M279.2,11.2l1.8,16.1l4.8,0.5l0.3,9.1l-2.8,1.4l-0.5,3.2l-3.9,0.5c0,0,0.3,8.3-0.8,14.2
			c-1,5.8-4,23.6-4,23.6s17.7-4.3,25.1-2.6C306.5,79,334,93,339.2,94.9c5.2,1.8,25.7,8.2,43.8,8.7c18,0.5,25.3,1.4,29,3.4
			c3.6,2,19.3,14.5,22.1,17.3c0.6,0.6,3.4,3.2,7.4,7l-4.1,4.1l0.5,3.3l-6.1,2.7l-5.2-3.4l-1,2.2l1.9,1.4l-12,11.7l1.2,1.4l-8.2,6.6
			l18.3,0.1c0,0,0.6,4.2,0.9,6.5c0.4,2.3,1.6,9.3-1.7,13c-3.4,3.7-3.4,3.7-3.4,3.7l-0.8,0.8l-9.7-1.1l-3.4-1.6l-3.4,1.5
			c0,0-2.9-3.4,0.2-5.3l-2.7-3.1l1.4-1.5l-1.8-3.7l-5.1-1.9l-2.4,3.4l5.2,3l-2.8,4.1l3.4,2.2l-12.3,12.1c0,0-0.4,3.8-2,4.8
			c-1.6,0.9-4,1.4-5.4,0.5c0,0,1.2,19,0.2,22.6c-0.9,3.6-5.2,12.8-6.2,15c-0.9,2.2-12.3,27.2-12.3,27.2v17.3c-3.6-1.7-4-4.2-4.7-5.8
			c-0.7-1.9-3.7-3.5-5.6-4.9c-1.9-1.4-4.4-3.3-4.4-3.3l-0.7,10.5l-16.8-2.3c0,0,0.5,9.6,0.2,11.6c-0.2,2.1-1.9,4.4-1.9,4.4l-2.6,0.2
			l-7-3.5l-2.6,0.2l-2.8-12.1l-10,0.7l-3.9-4.9c0,0-0.1-7.7-0.2-10.4c-0.1-2.7-3-11.5-3-11.5l6.6-1.9l-6.6-4.6c0,0-2-9.3-2.5-11.7
			c-0.5-2.4-2-5.1-2.4-6.6c-0.4-1.5,0.4-10.5,0.4-14.3c0-3.7,3.5-14.9,3.5-14.9c-0.6-1.7-4.5-16.1-5-18.6
			c-0.5-2.5-0.2-14.5-0.1-16.4c0.1-1.9-4.5-21.4-5.1-24.9c-0.6-3.5-2.1-20.8-2.7-25.1c-0.6-4.2-7.6-8.1-7.6-8.1s-0.5,0.1-1.1,0.1
			c-0.6,0-2.6-2.5-3.5-3.2c-0.9-0.7-12.5-8.2-12.5-8.2l-3-7.9c0,0,0,0,0,0l-16.1-57.4l23.4-4.9l-5.1-14.2l12.2-3l4.5,4.5l14.3-8.3
			l2.3,4l3.6-0.4c0,0,4.7,9.1-1.2,9c0,0-3-0.1-4.4-1.3C287.7,10.6,279.2,11.2,279.2,11.2z"/>
	</g>
	<g>
		<path fill="#FAF8F6" d="M300.2,271.7l3.9,4.9l-2.6,17.9c0,0-2.8,8.6-9.1,9.3c-6.3,0.7-26.5,4-26.5,4l-8.6,10l-1.6,5.6l-11.9,6.5
			l-1.9-2.3c0,0-11.8-22.3-13.4-25.8c-1.5-3.6-2.6-17.9-3.9-24.7c-1.2-6.8-11.5-26.5-12.1-28.2c-0.6-1.7-2.8-5-3.9-12.4
			c-1.1-7.4,6.5-13.5,6.5-13.5l-2.2-4.8l-12.3,0.6l-2.5-3.3c3.1-0.3,3.3-2.6,3.3-4.2c0-1.5-21.6-53.8-22.3-55.9
			c-0.8-2-0.8-8.8-0.8-8.8s-2.3-0.9-4.5-2c-2.2-1.1-10.7-11.5-10.7-11.5l-0.1-0.3l1.1-0.4l3.2-7.7c20.9,3,33-6.2,37.3-8.8
			c4.3-2.6,30.3-21.4,38.6-27.5c8-5.8,11.8-4.8,12.1-4.7l3,7.9c0,0,11.7,7.4,12.5,8.2c0.9,0.7,2.8,3.2,3.5,3.2
			c0.6,0,1.1-0.1,1.1-0.1s6.9,3.9,7.6,8.1c0.6,4.2,2.1,21.6,2.7,25.1c0.6,3.5,5.2,23.1,5.1,24.9c-0.1,1.9-0.4,13.9,0.1,16.4
			c0.5,2.5,4.4,16.9,5,18.6c0,0-3.5,11.2-3.5,14.9c0,3.7-0.7,12.8-0.4,14.3c0.4,1.5,1.9,4.2,2.4,6.6c0.5,2.3,2.5,11.7,2.5,11.7
			l6.6,4.6l-6.6,1.9c0,0,2.8,8.8,3,11.5C300.1,264,300.2,271.7,300.2,271.7z"/>
	</g>
	<g>
		<path fill="#FAF8F6" d="M78.1,5.2l3.6,4.5l2.4,0.7l4.3-7.6l14.5,0.4l2.4,1c0,0-0.7,1.9-1,2.9c-0.4,1,5.2,4.7,6.8,4.5
			c1.5-0.2,0.7-1,0.7-2.6c0-1.6,0.9-0.9,2.3-0.7c1.4,0.2,0.9-0.2,1.4-1c0.5-0.9,0.9,0.2,2.8,1.4c1.9,1.2,1.2,0.9,2.3,1
			c1,0.2,0.5,1.6-0.2,2.8c-0.7,1.2,0.2,1.9,1.9,2.8c1.7,0.9,3.6-1.7,4.7-2.4c1-0.7,5-1.6,7.1-2.1c2.1-0.5,1-2.8,0.9-4
			c-0.2-1.2,2.1-0.3,2.8,0.5c0.7,0.9,2.1-1,2.1-1l3.4-0.3l3.8,4.5l0.9,1.3v5.5l-3.1,0.1c0,0-1.6,3.5-6,3.2l-5.2,12.9
			c0,0,4.2,8.6,3.8,10.2c-0.4,1.7-1.5,4.8-1,5.7c0.5,0.9,2.1,4.9,1.7,5.6c-0.4,0.7-2.1,3-3.4,2c-1.3-1-2-2.7-2-2.7l-6.6-0.7
			l-3.1,7.8l5.6,8l-9.3,6.8v0.2h0l-7.9-0.5l0.9-3.4l-4.9,3l-0.7,2.5l-7.2,4.5l-0.1,0c-0.2-0.8-2.1-8.5-3.1-10.1c-1-1.7,3.5-4,3.5-4
			l-0.7-2.3c1.4-1.7,8-4,8-4L86.9,47.4c0,0-5.4,4.3-6.2,5c-0.9,0.7-3.5,1-5.2,0.5c-1.7-0.5-1.2-2.3-1.5-3.8
			c-0.4-1.6-6.6-7.6-6.6-7.6l1.2-5.4l6.6-5.5l6.1,3.8l2.9-3.3l-10-11.6h-2.4l-3.1-8.1L68.8,6l5.4-4.5l6.2-0.7l1,2.1L78.1,5.2z"/>
	</g>
	<g>
		<defs>
			<path id="SVGID_1_" d="M329.2,637.5l-23.3-2.8l-43.5-18.4l-30.5-14.4l-8.1-7.2l-11.9-17l-33.3-51.2l71.2-150.8
				c0,0,146.2,60.7,147.6,62.9s13,118.1,12.6,126.5S329.2,637.5,329.2,637.5z"/>
		</defs>
		<clipPath id="SVGID_2_">
			<use xlink:href="#SVGID_1_"  overflow="visible"/>
		</clipPath>
		<g clip-path="url(#SVGID_2_)">
			<path fill="#FAF8F6" d="M269.9,751.8c-1.2,0-5.6,1.8-6.2,2.1c-0.7,0.3-3-0.1-3.5-0.4c-0.5-0.3-1.6,0.5-2.1,0.5
				c-0.5,0-3.1-1.3-3.9-1.6c-0.8-0.3-0.9,0.9-2,1.8c-1,0.9-1.5,0.4-2.5,0.1c-0.9-0.3,0-5.5,0-6.4c0-0.9,4.9-0.7,4.9-0.7
				s0.5-3.1,0.5-3.9c0-0.8,1.2-1.5,2.2-2.1c1-0.5,1.3-4.2,1.3-4.2s-8.4-8.6-9.2-9.7c-0.8-1.2-4-1.8-5.5-2.2
				c-1.4-0.4-2.7-1.6-3.1-2.1c-0.4-0.5-1.3-2.7-2.1-3.5c-0.8-0.8-6.6-2.6-7.9-2.7c-1.3-0.1-7.7-0.4-9.7-0.4c-2.1,0-6.6-2.6-7.7-3.2
				c-1-0.7-3.5-0.9-4.7-0.9c-1.2,0-3,2.6-4.3,3.5c-1.3,0.9-2.6,0.8-3.5,0.1c-0.9-0.7-0.5-4.5-0.5-5.3c0-0.8-1.4-2.6-2.1-3.2
				c-0.7-0.7-0.1-2.5,0.5-4c0.7-1.6,1.2-4.7,1.2-4.7s5.5-2.2,6.6-2.6c1.2-0.4,2.5-0.8,4.2-0.8c1.7,0,7-0.7,10.5-2.2
				c3.5-1.6,8.8-5.1,10.1-6.9c1.3-1.8,3.1-4.9,4-5.8c0.9-0.9,13.5-10.9,13.5-10.9s10.4,4,14,4.9c3.6,0.9,7-4,7-4l1.3,0.1l2.6-10.8
				l-3.6-1.3l-0.8-2.1l1.7-1.2l-0.5-6.4c0,0-2.7-1.6-3.2-1.8c-0.5-0.3-0.4-1.9-0.4-1.9s-2.1-0.9-3.1-1c-1-0.1-6.2-3-7-3.5
				c-0.8-0.5,0.7-2.1,1.7-2.5c1-0.4-1.3-4.4-1.7-5.6c-0.4-1.2,2.6-1.7,3.5-1.5c0.9,0.1,3.6,0.8,4.7,0.7c1-0.1,2.2-1.4,2.8-2.3
				c0.7-0.9,3,0.9,3.2,1.6c0.3,0.7,2.1-0.5,2.3-1.3c0.3-0.8-1.6-1.7-2.6-1.8c-1-0.1-2.7-2.8-2.8-3.5c-0.1-0.7-1-1.8-1.7-2.2
				c-0.6-0.4-0.6-0.9-1-1.4c-0.4-0.5-1.3-2.2-1.3-2.2s-16.5-7.1-26.2-11.4c-9.7-4.3-17.7-14.5-17.7-14.5l-38.4-59.5l0.2-0.1
				l47.9-41.6l14.3-17.8l-11-10.2c0,0,19.9-19.4,21.9-21.6c2-2.2,21.7-28.2,21.7-28.2l0-0.1c0.7-0.1,1.4-0.2,2.2-0.3
				c11.5-2.6,14.6-6.5,14.6-6.5s3,3.8,5.7,7.5c2.1,2.8,4,5.4,4.4,6.2c0.9,1.9,5.9,10.9,7.3,14.3c1.4,3.4,7.6,11.5,9,12.6l-0.3,7.1
				l3.6,2l4.4-0.8l1.5,6.5c0,0-2.3,2.6-2.5,3.6c-0.2,0.9-0.3,2.2-1.1,3.1c-0.8,0.9-5,3.7-5.1,4.8c-0.1,1.1-0.8,2-0.1,3.1
				c0.6,1.1,1.2,1.5,1.2,1.5l0.1,3.7l4.5,4.8l-3.9-0.5l-0.9,2.8c0,0,4.2,1.7,6.4,1.9l-7.1,11.3l0.1,24.5c0,0-9.8,0.3-12.4-0.8
				c-2.6-1.1-10.9-5.6-10.9-5.6l-1.4,2.8c0,0,4.2,2.2,3.3,6.1c-0.9,3.9-1.1,4.5-1.1,4.5l-3,3.4l-0.5,2.9l8.2,2l-5.1,14.1
				c0,0-3.7,0.8-4.3,1.9c-0.6,1.1-2.2,4-0.9,4c1.2,0,3.3-1.7,2.9-0.5c-0.3,1.2-1.1,2.6-0.1,2.9c0.9,0.3,1.5,0.8,1.1,1.4
				s-0.9,1.4-0.9,2.5c0,1.1,0.1,2-0.6,2.5c-0.8,0.5-1.1,0.8-1.1,1.7s1.1,6.1-0.6,6.4c-1.7,0.3-5.1,0.5-4,2.6
				c1.1,2.2,0.9,3.6,1.7,3.4c0.8-0.1,1.7-0.6,1.7-0.6l2.3,3.7l2.8-0.2l-2,9.6l3.1,1.1c0,0-0.6,3.3-2.8,3.4l-1.7,11.8l1.7,3.3
				l-3.6,9.6l16.9,7.1l5.4,10.7v3.7l2.2-0.3l0.2-0.1c1,2.9,2.3,6.2,2.3,6.2s-11.2,8-12.2,9.9c-1,1.8-2.7,6-3.3,9.3
				c-0.5,3.4-3.9,26.9-4,27.5c-0.1,0.7-3.6,25.8-3.6,25.8s2.7,1.6,3.4,2.6c0.7,1,13.4,17.7,13.4,17.7l-0.4,4.3l6.6,6l-0.9,2.6l0.2,4
				l-2.8,2.8l-0.5,2.1l-5.6,4.5l-1.7-2.3l-2,1.3l1.3,3.5l-18.4-13.6l5.2-28.8l-13.4,0.1c-5.6,10-16.6,6.6-17.4,6.4l12.4,8l-1.3,3.9
				C274.7,751.7,271,751.8,269.9,751.8z"/>
		</g>
	</g>
</g>
<path fill="#FAF8F6" d="M559.9,249l4.4,4.7l4.8-1.6l-0.3-2.1l2.5-0.8l0.3-3.1l6.5-3.1c0,0,0.7-7,2.1-7c1.4,0,7-0.9,7.9,0
	c0.9,0.9,2.2,1,2.1,2.3c-0.1,1.3-0.9,2.5,0,2.6c0.9,0.1,5.4,0.5,5.4-3.6c0-4.2-2.5-4.5-4.9-5.3c-2.5-0.8-5.2-1.2-5.2-1.2l-0.7-2.3
	l-7.4,2.5l-0.9-2.3l-5.5,1c0,0-2.1-2.6-1.7-4c0.4-1.4,4.3-3.1,4.3-3.1l-1-1.8l-6.1,2.6l0.5,4c0,0-9,3.2-9.9,4.2
	c-0.9,0.9-2,2.2-2,2.2l-10.1,7.9l10.5,11.7L559.9,249z M653.2,406.1c-3.3,0-6.1-5-6.1-5l-8.3,1.7l-1.7-8.2c-0.2-0.7-0.7-1.5-1.3-2.5
	c-2.1-3.3-5.8-7.7-7.5-9.2c-2.2-2-10.3-5.5-10.3-5.5s-3.8,0.5-5.1,1c-1.3,0.5-2,4.2-2.5,5.8c-0.5,1.7-7.1,4.2-7.1,4.2l-1.3-1.3
	l-8.2,3.2l-4.7,0.4l-2.9,1.4l-1.8-2.1l-1.6,2.6l-0.4,3.8l-7.7-0.5l0.4-3.5l-8.9-0.2c0,0-6.1-1.7-9.4-4.4c-3.3-2.8,2.2-14.9,5-18.2
	c2.8-3.3,9.9-4,9.9-4l5.7-7l9.9,0.9l-1.7-10l-6.5-2.2c-10.9,6.6-34.3,8.4-34.3,8.4s-1.2-30.2-1-33.9c0.1-3.6-0.1-16-0.1-16
	s-3.4-63.8-4.4-74.1c-1-10.4-11.4-20.9-11.4-20.9l-42.8-39.1c0,0-29.6-27.4-43.8-40.7c-4-3.7-6.8-6.4-7.4-7
	c-2.7-2.7-18.4-15.3-22.1-17.3c-3.6-1.9-10.9-2.8-29-3.4c-18-0.5-38.6-6.9-43.8-8.7C334,93,306.5,79,299.1,77.3
	c-7.4-1.7-25.1,2.6-25.1,2.6s3-17.8,4-23.6c1-5.8,0.8-14.2,0.8-14.2l3.9-0.5l0.5-3.2l2.8-1.4l-0.3-9.1l-4.8-0.5l-1.8-16.1
	c0,0,8.4-0.7,9.9,0.5c1.4,1.2,4.4,1.3,4.4,1.3c5.8,0.1,1.2-9,1.2-9L291,4.5l-2.3-4l-14.3,8.3l-4.5-4.5l-12.2,3l5.1,14.2l-23.4,5.1
	L255.5,84c0,0,0,0,0,0c-0.3,0-4.1-1.3-12.1,4.5c-8.3,6.1-34.3,24.9-38.6,27.4c-4.3,2.6-16.3,11.8-37.3,8.8l-3.2,7.6l-1.1,0.4
	l-1.5,0.6l-1-2.5l-6.6,3l-10.4-1.6l-0.9-1.8l-5.6-2.2l0.3-6.9c0,0-1.8-1.2-3.6-2.5c-1.8-1.3-1.6-4.7-1.4-6.1c0.1-1.4-0.5-4-0.5-4
	L126,93.9c0,0-0.7-0.3-3.9-1c-3.3-0.8-3.2-4.7-3.2-4.7l0.1-11.9v-0.2l9.4-6.8l-5.6-8l3.1-7.8l6.6,0.7c0,0,0.7,1.7,2,2.7
	c1.3,1,3-1.3,3.4-2c0.4-0.7-1.2-4.7-1.7-5.6c-0.5-0.9,0.6-4,1-5.7c0.4-1.7-3.8-10.2-3.8-10.2l5.2-12.9c4.4,0.3,6.1-3.2,6.1-3.2
	l3.2-0.1v-5.5l-1-1.3l-3.8-4.5l-3.4,0.3c0,0-1.4,1.9-2.1,1c-0.7-0.9-2.9-1.7-2.8-0.5c0.2,1.2,1.2,3.5-0.9,4
	c-2.1,0.5-6.1,1.4-7.1,2.1c-1,0.7-2.9,3.3-4.7,2.4c-1.7-0.9-2.6-1.6-1.9-2.8c0.7-1.2,1.2-2.6,0.2-2.8c-1-0.2-0.4,0.2-2.3-1
	c-1.9-1.2-2.3-2.3-2.8-1.4c-0.5,0.9,0,1.2-1.4,1c-1.4-0.2-2.3-0.9-2.3,0.7c0,1.6,0.9,2.4-0.7,2.6c-1.6,0.2-7.1-3.5-6.8-4.5
	c0.4-1,1-2.9,1-2.9l-2.4-1L88.5,2.7l-4.3,7.6l-2.4-0.7l-3.6-4.5l3.3-2.3l-1-2.1l-6.2,0.7L68.8,6l-0.2,5.6l3.1,8.4h2.4l10,11.4
	l-2.9,3.2l-6.1-3.9l-6.6,5.5l-1.2,5.3c0,0,6.2,6,6.6,7.6c0.3,1.6-0.2,3.3,1.5,3.8c1.7,0.5,4.3,0.2,5.2-0.5c0.9-0.7,6.2-5,6.2-5
	l19.9,14.7c0,0-6.6,2.3-8,4l0.7,2.3c0,0-4.5,2.3-3.5,4c1,1.6,2.9,9.4,3.1,10.1c0,0,0,0.1,0,0.1L95.9,85l0.9,2.8l2.8,0.9L99.4,91
	c0,0-6.1,1.7-6.6,2.4c-0.5,0.7-0.2,2.3,1,3.1c1.2,0.9,4.2,2.9,3.5,3.6c-0.7,0.7-1.6,2.1-1.6,2.6s1,4.3,2.4,4c1.4-0.4,5-2.1,6.2-0.7
	c1.2,1.4,2.3,2.6,1,3.6c-1.2,1-3.6,3.1-3.6,4c0,0.9,0.5,2.4,1.2,3.3c0.7,0.9,0.9,2.8,0.2,3.3c-0.7,0.5-3.5,2.1-2.4,4
	c1,1.9,2.6,3.6,3.5,4.8c0.9,1.2,4.8,1.2,5.4,2.1c0.5,0.9,1.7,2.3,1.7,2.3s5.2,1,6.4,1c1.2,0,2.4-0.7,3.3,0.2
	c0.9,0.9,3.1,1.9,4.3,2.1c1.2,0.2,3.8-0.2,4.3-0.7c0.5-0.5,2.6-1.5,2.6-0.3s0.3,2.9,0.3,2.9l6.1,5.7c0,0-10.7,9.2-13.2,16.3
	c-2.4,7.1-3.6,10.7-3.6,10.7s-3.3,2.3-3.6,1.4c-0.4-0.9-1.7-2.3-2.3-1.5c-0.5,0.7,0.2,2.1-1.7,1.5c-1.9-0.5-2.3-0.9-2.8-0.5
	c-0.5,0.4-2.1,1.4-3.6,1.2c-1.6-0.2-2.1-0.5-2.3-1.9c-0.2-1.4-0.7-4,0.2-4.7c0.9-0.7,3.8-1.7,3.5-2.6c-0.3-0.9-2.4-2.9-1.5-3.8
	c0.9-0.9,1.5-1.9,1.2-2.6c-0.4-0.7-2.1-1.6-1.2-3.1c0.9-1.5,1.2-3.1,1.2-3.1l-1.9-1.9c0,0-5,1.2-5.5,1.2c-0.5,0-2.9-0.9-4.3-0.9
	c-1.4,0-6.7,1-7.1,1.7c-0.3,0.7,0.5,5.2-1.2,5.4c-1.7,0.2-3.5,0.5-4.7,0.5c-1.2,0-5.9-0.5-6.2,0.5c-0.4,1,0.3,1.9-0.7,2.4
	c-1,0.5-4.8,3.7-5,5.5c-0.2,1.9,0,10-0.9,11.8c-0.9,1.7-1.2,4.5-2.6,5.2c-1.4,0.7-3.8,1.6-3.8,1.6l0.2,2.8c0,0,10.9,0.7,14,3.3
	c0,0-7.1,2.8-7.1,3.8c0,1-0.3,3.3,0.5,4.2c0.9,0.9,4.5,4,4.5,4l-4.7,2.4l0.2,3.3l5.2,0.4l1.6,5.7l-2.8,4.5c0,0,5-0.4,5,1.4
	c0,1.7-0.9,4.8-0.2,5.9c0.7,1,2.8,2.4,3.6,0.9c0.9-1.6,0.2-5.4,0.2-5.4l2.6-0.3c0,0,2.2,6.2,3.6,5.7c1.4-0.5,2.1-1.7,3.1-3.7
	c1-1.9,5.9-7.4,8.3-8.3c2.4-0.9,4.9-1.9,4.9-1.9s8.3-1.9,13.3,0.3c0,0-2.6,18.5-5.1,31.1l-6.5,0.8l-2.6,3.9c0,0-3-5.6-6-5.6
	c-3,0-11.6-2.1-15.5,0c-3.9,2.1-15.6,14.2-15.6,14.2L32,254.1v15l3.5,0.9l-0.4,7.3l9.5,0.4l-0.8,6.9l21,9.9l-1.7,4.3
	c0,0-8.6,0.9-9.4,4.3c-0.9,3.4-0.9,9-0.9,9s-6-0.9-5.6,2.2c0.4,3,0.9,5.6,0.9,5.6l17.2-2.4l-0.3-6.5l6.4,1.3l-1.7,2.6l7.3,1v-2
	l3-0.9c0,0,0.4-1.8,0.7-3.1c0.3-1.3-0.6-0.9-1.3-1c-0.8-0.1-0.9,0.5-1.7,1.3c-0.8,0.8-0.7-2.5-0.7-3c0-0.5,1.4-1.5,2.2-2.1
	c0.8-0.5,2.3,1.3,2.8,2.1c0.5,0.8,1.3-0.2,1.4-0.9c0.1-0.7-0.3-4.7-0.1-5.6c0.1-0.9,7.5-8,7.5-8l0.7-3.6l7.1-4.8
	c0,0-0.5,13.9-0.8,22.1c-0.1,2.4-0.1,4.4-0.1,5.3c0,4-0.4,36.2,0.3,40.3c0.7,4,4.9,19.6,6.9,26c1.2,3.9,4.2,15,6.7,23.6l-13.7,3.9
	c0,0,4.3,4.7,3.9,8.2c-0.4,3.4-1.3,8.6-1.3,8.6l-8.6-1.3l0.4-5.6l-8.6,8.6l-2.1,12.6l7.3,11.7H78.1l-2.6-13.9l-12.9,21.4l19.8,9.4
	l3.4-6.9l6,5.2l15.5-24.9l5.2,4.7l8.6-9.9l-6.4-4.3l0.6-16.3c2,3.8,15.6,21.8,18,24.8c2.5,3,8.4,12.5,8.1,16.1c-0.4,3.6,0,6.5,0,6.5
	l1.9,1.7l-8.6,5.8l1.6,2.1c0,0-5.1,3.9-4.4,9.2c0,0,2.7,0.8,3.5,1.5c0.8,0.8,5.8,5.6,6.7,7.4c0,0-11.7,6.5-15.7,6.6
	c-4,0.1-7.1-0.1-7.9-1.5c-0.8-1.4-2.5-4-4.3-4.4c-1.8-0.4-5.7,0.5-5.7,2.3c0,1.8-0.5,6.1-1.5,6.5c-1,0.4-5.3,1-6-1
	c-0.7-2.1-0.8-6-0.8-7.4c0-1.4,0.3-5.1-0.4-5.8c-0.7-0.8-1.3-1.4-1.3-1.4l-9.9,2c0,0-0.4,1.9-1.4,3.4c-1,1.4-3.9,3.1-3.9,3.1
	l-2.9-3.4c0,0-2.2,4.8-3.1,5.6c-0.9,0.8-3.4,2.1-2.8,3c0.5,0.9,3.4,5.7,2.7,6.9c-0.7,1.2-2.1,1.5-3,2.3c-0.9,0.8-3.5,1.8-4,2.3
	c-0.5,0.5-3.4,4.3-4,5.2c-0.7,0.9-3.8,4.5-3.2,5.7c0.5,1.2,2.1,4.4,1,5.6c-1,1.2-2.9,2.5-2.5,4c0.4,1.6,1.6,3.1,2.6,3.4
	c1,0.3,3.4,3.2,3.5,3.9c0.1,0.7,0.8,2.5,1.2,2.6c0.4,0.1,3.8,2.2,3.8,2.2s2.7-0.8,3.8-1.4c1-0.7,3.6-3.1,3.6-3.1l5.2,3.1l2.3,0.1
	l3.4,2.3l-0.5,3.1l2.7,3.2l2.8-1.4l2.7,2.3l-0.4,3.8l7.5,6.8l1.3-1.8l-1.6-2.1l9.9-11l2,0.4l-0.9,4.7c0,0,5.8,1.8,9.1,0.5l0.7-3.8
	c0,0,7.4,0.4,10.3,2.2l1.4-6.7c0,0,0.7-3.4,1.2-4c0.5-0.6,3-1.2,3.9-1.8c0.9-0.7,1.4-4.8,1.4-5.5c0-0.7,0.1-12.3,0.1-12.3
	s-1.7-0.5-1.7-1.3c0-0.8-0.8-2.2-1-3c-0.2-0.8,1.7-2.8,2.2-3.5c0.5-0.7,0-4,0-4s-0.8-1-2.1-2.3c-1.3-1.3,0.1-6.1,0.1-6.1
	s4.2-1.3,5.6-1.3c1.4,0,9.6-0.5,9.6-0.5l24.7,38.3l38.4,59.5c0,0,7.9,10.3,17.7,14.5c9.7,4.3,26.2,11.4,26.2,11.4s0.9,1.7,1.3,2.2
	c0.4,0.5,0.4,1,1,1.4c0.7,0.4,1.6,1.5,1.7,2.2c0.1,0.7,1.8,3.4,2.8,3.5c1,0.1,2.9,1,2.6,1.8c-0.3,0.8-2.1,2-2.3,1.3
	c-0.3-0.7-2.6-2.5-3.2-1.6c-0.7,0.9-1.8,2.2-2.8,2.3c-1,0.1-3.8-0.5-4.7-0.7c-0.9-0.1-3.9,0.4-3.5,1.5c0.4,1.2,2.7,5.2,1.7,5.6
	c-1,0.4-2.5,2-1.7,2.5c0.8,0.5,6,3.4,7,3.5c1,0.1,3.1,1,3.1,1s-0.1,1.7,0.4,1.9c0.5,0.3,3.2,1.8,3.2,1.8l0.5,6.4l-1.7,1.2l0.8,2.1
	l3.6,1.3l-2.6,10.8l-1.3-0.1c0,0-3.4,4.9-7,4c-3.6-0.9-14-4.9-14-4.9s-12.6,10-13.5,10.9c-0.9,0.9-2.7,4-4,5.8
	c-1.3,1.8-6.6,5.3-10.1,6.9c-3.5,1.5-8.8,2.2-10.5,2.2c-1.7,0-3,0.4-4.2,0.8c-1.2,0.4-6.6,2.6-6.6,2.6s-0.5,3.1-1.2,4.7
	c-0.6,1.5-1.2,3.4-0.5,4c0.7,0.7,2.1,2.5,2.1,3.2c0,0.8-0.4,4.7,0.5,5.3c0.9,0.7,2.2,0.8,3.5-0.1c1.3-0.9,3.1-3.5,4.3-3.5
	c1.2,0,3.6,0.3,4.7,0.9c1,0.6,5.6,3.2,7.7,3.2c2.1,0,8.4,0.3,9.7,0.4c1.3,0.1,7.1,1.9,7.9,2.7c0.8,0.8,1.7,3,2.1,3.5
	c0.4,0.5,1.7,1.7,3.1,2.1c1.4,0.4,4.7,1,5.5,2.2c0.8,1.2,9.2,9.7,9.2,9.7s-0.3,3.6-1.3,4.2c-1,0.5-2.2,1.3-2.2,2.1
	c0,0.8-0.5,3.9-0.5,3.9s-4.9-0.3-4.9,0.7c0,0.4-0.2,1.7-0.3,3h25.5l1.1-3.2l-12.4-8c0.7,0.2,11.7,3.6,17.4-6.4l13.4-0.1l-3.2,17.8
	h21.8l0.4-4.1c0,0-12.7-16.6-13.4-17.7c-0.6-1-3.4-2.6-3.4-2.6s3.5-25.2,3.6-25.8c0.1-0.7,3.5-24.2,4-27.5c0.5-3.4,2.2-7.5,3.3-9.3
	c1-1.8,12.2-9.9,12.2-9.9s-1.3-3.3-2.3-6.2c-0.3-1-0.6-1.9-0.8-2.6c-0.8-3,1.3-4.8,2.5-5.5c1.2-0.7,2.7-0.5,3.9-0.4
	c0,0,46.1,3.5,56,4.3c9.9,0.8,15.2-4.3,15.2-4.3s32.1-21.4,46-30.6c13.9-9.2,50.4-44.6,51.9-46c0.8-0.7,3.3-3,5.7-5.3
	c2.2-2.1,4.3-4.2,4.9-4.9c1.3-1.5,21.7-24.4,31.8-37c10.1-12.6,6.9-24.7,5.8-29.9c-1-5.2-6.6-30.1-6.6-30.1l22.2,18.2l7.9-23.5
	l-4-4.9l3.4-4.7l-6.6-8.7l2.1-2.6l0.2-0.3l10.8,9.5c0,0,13.6-15.7,14.4-16.4c0.8-0.6,4.5-0.8,6-0.8c1,0,5.8-1.2,9.7-1.9l0.5,7.7
	l8.8,0.5c0,0-0.6,7.2-0.6,11.6c0,4.4,3.9-2.2,7.7-3.9c3.9-1.7-2.2,10.5-3.9,12.1c-1.7,1.7-3.3,2.8-6.1,6.1c-2.8,3.3,0.6,7.7,2.8,8.3
	c2.2,0.6,2.2,8.3,2.2,8.3s18.8,0.5,24.9,0c6.1-0.6,19.3,4.4,19.3,4.4s-2.2-8.3-2.8-12.7c-0.5-4.4,0-8.3,0-12.7
	c0-4.4-6.6-5.5-9.9-7.7c-3.3-2.2-3.3-6.1-3.3-6.1l14.4-2.8c0-3.9-7.7-6.6-11.6-8.3c-3.9-1.7-3.9-7.7-3.9-7.7l21,3.9
	c0,0-1.1-2.2-3.3-5c-2.2-2.8,1.1-2.8,3.9-5c0.1-0.1,0.1-0.1,0.2-0.2v-2C658.7,407.1,655.4,406.1,653.2,406.1z"/>
<g opacity="0.8">
	<polygon fill="#F4F3EE" points="232.2,603.8 223.9,595 214.4,583.3 179.2,529.1 0,606.5 0,751 294,751 309,666.1 312.9,638 
		283.5,626.3 	"/>
	<path fill="#EBE7DE" d="M0,631.4L119.3,751h1.1L0,630.3V631.4z M33.6,591.9L192.3,751h1.1L34.4,591.6L33.6,591.9z M0,651.5
		L99.3,751h1.1L0,650.4V651.5z M0,641.5L109.3,751h1.1L0,640.4V641.5z M0,620.4L130.3,751h1.1L0,619.3V620.4z M26.6,595l155.7,156
		h1.1l-156-156.4L26.6,595z M0,609.4L141.3,751h1.1L0,608.3V609.4z M19.6,598l152.7,153h1.1l-153-153.4L19.6,598z M5.6,604
		l146.7,147h1.1L6.4,603.7L5.6,604z M12.6,601l149.7,150h1.1l-150-150.3L12.6,601z M0,661.5L89.3,751h1.1L0,660.4V661.5z M0,734.5
		L16.5,751h1.1L0,733.3V734.5z M0,745.5l5.5,5.5h1.1L0,744.4V745.5z M198.4,558.7L172,532.2l-0.8,0.3l29.3,29.3L198.4,558.7z
		 M0,723.4L27.5,751h1.1L0,722.3V723.4z M179.2,529.1l-0.3,0.1l1.2,1.2L179.2,529.1z M0,671.6L79.3,751h1.1L0,670.5V671.6z M0,713.4
		L37.5,751h1.1L0,712.3V713.4z M0,682.6L68.3,751h1.1L0,681.5V682.6z M0,692.6L58.3,751h1.1L0,691.5V692.6z M0,703.6L47.3,751h1.1
		L0,702.5V703.6z M134.9,548.2l165.7,166l0.2-1L135.6,547.9L134.9,548.2z M141.8,545.2L302,705.7l0.2-1L142.6,544.9L141.8,545.2z
		 M148.8,542.2l154.7,155l0.2-1L149.6,541.9L148.8,542.2z M120.2,554.6l177.2,177.6l0.2-1L121,554.2L120.2,554.6z M155.9,539.2
		L305,688.7l0.2-1L156.6,538.8L155.9,539.2z M127.8,551.3L299,722.8l0.2-1L128.6,550.9L127.8,551.3z M250.2,611.7l58.1,58.3l0.2-1
		l-56.3-56.4L250.2,611.7z M232.2,603.8l-3.7-3.8l-64.3-64.4l-0.8,0.3l143.2,143.5l0.2-1L232.6,604L232.2,603.8z M269.8,620.3
		l40,40.1l0.1-1l-38.1-38.2L269.8,620.3z M289.1,628.6l-1.9-0.7l23.7,23.8l0.1-1L289.1,628.6z M113.2,557.6l182.7,183.1l0.2-1
		L114,557.3L113.2,557.6z M106.2,560.6l188.2,188.6l0.2-1L107,560.3L106.2,560.6z M69.3,576.5L243.4,751h1.1L70.1,576.2L69.3,576.5z
		 M62.3,579.6L233.3,751h1.1L63.1,579.2L62.3,579.6z M55.3,582.6L223.3,751h1.1L56.1,582.3L55.3,582.6z M41.3,588.6l162,162.4h1.1
		L42.1,588.3L41.3,588.6z M48.3,585.6l165,165.4h1.1L49.1,585.3L48.3,585.6z M76.9,573.2L254.3,751h1.1L77.7,572.9L76.9,573.2z
		 M92.3,566.6l184,184.4h1.1L93.1,566.3L92.3,566.6z M99.3,563.6l187,187.4h1.1L100.1,563.3L99.3,563.6z M84.6,569.9L265.3,751h1.1
		l-181-181.4L84.6,569.9z"/>
</g>
<polyline opacity="0.26" fill="none" stroke="#EBE7DE" stroke-width="2" stroke-miterlimit="10" points="313.2,424.8 283.7,513.7 
	234.3,590.1 182.5,627.9 154,657.1 137.7,683.2 128.6,699.9 111.8,716.7 83.9,740.3 79.3,751 "/>
<g>
	<path fill="#F3F2ED" d="M120,208.4l-6.6,39.5l-0.8,2.7L99.7,277l-1.2,2.9l-2.4,7l-1.6,31.9c-0.9,0.4-0.8,3.8,0,3.4l0.6,31.4l6,20.2
		l1,3.4l8,28.1c-3.6,0.9-2.1,3.7,1.1,2.9l1.4,2.6l23.2,32.3l6.4,19l11.6,29.6l1.4,2.8l25,35.9l1.7,2.6l28.3,44.8l1.8,2.6l13,18.7
		l0.1,0.2l7.8,6.2l61.4,26.8l12.1,4.9l0.2,0.1l3,0.4c0.3,2.7,3.4,2.6,3.2,0.4l22.1,2.6l43.7,3.8l0.2,0l8-1.2l9.8-5.3
		c2.2-1.1,4,1.1,2.7-1.5l2.4-1.3l34.2-23.1l2.6-1.8l20.2-15.2l0.1-0.1l28.3-26.7l2.3-2.2l15-15.4l17.3-20.1l2.1-2.4l11.8-14.4
		l0.1-0.1l5.7-10.9l0.6-3.1l-1.2-15.9l0-0.1l-6.5-29.5l-0.9-4.2l-0.9-5.3c0-1.3,0.3-11.1,2-17.6c0.7-2.6,1.5-5.3,2.5-8.3
		c0-0.1,0.1-0.3,0.1-0.4l2,0.8l1.5-2.8l-2.6-1c1.3-4.2,2.5-8.4,3-12c0.8-5.5,2.6-34.8,3.3-46.4l0.2-3.2c0-0.8,0.1-1.3,0.1-1.5
		l0-50.5l-0.1-3.4l-3.2-58.9l-0.2-3.4l-1.5-12.2l0-0.1c-0.1-0.3-1.7-7.2-13.9-18.4c-10.9-10-78.8-71.6-89.9-81.8l1.1-1.2
		c0.4-0.4-2-2.4-2-2.4l-1.4,1.5l-16.6-14l-0.1-0.1c-0.3-0.2-7.3-5.3-17.4-6.1c-5.5-0.4-11-0.9-14.8-1.1l-3.2-0.2
		c-1-0.1-1.6-0.1-1.7-0.1c-0.2,0-19.9-1.7-31.6-5c-10.6-3-38-15.7-43.4-18.2l-8-1.8l-8.3,0l-26.2,4.8c-0.5,0-3.1-0.2-3.2,0.8
		L242.6,86l-36.1,27.1l-0.6,0.2c0.4-1.4-3.3,0.2-3.6,1.3l-7,3.9l-11.2,3.5l-11.9,0.7l-3.6,0.8l-3,1.2l-18,9.7l-0.1,0
		c-0.3,0.2-8.6,5.1-11.4,7.8c-2.8,2.7-10.2,12.4-10.5,12.8l-0.1,0.2l-0.1,0.2c-0.3,0.8-7.6,19.6-8.3,24.4c-0.1,0.8-0.2,1.4-0.3,2
		c-0.5,3.2-0.8,4.8,0.4,8.6c0.6,2.1,1.3,3.9,1.8,5.3c0.5,1.4,0.9,2.5,1.1,3.4c0.2,0.9,0.3,3.9,0.3,6.3L120,208.4z M541.5,300.4
		l-102.3,36.5c-0.2,0.1-19.7,6.9-30.7,10.4c-1.5-3.6-3.9-7.8-4.6-9.1c0-3-0.2-20.2-0.7-23.2c-0.5-3.4-8.6-11.5-11.1-13.9l-0.1-0.1
		c-0.3-0.2-5.1-4.1-9.1-7.2l8.6-11.2l9.7-7.2l18.1-3.1l0.1,0l42-13.8l0.2-0.1c5.5-2.9,21-10.4,26-11c2.6-0.3,6.5-0.3,10.7-0.4
		c5.9-0.1,12.1-0.1,15.7-0.9c4.8-1,19.1-3.9,24.2-4.9L541.5,300.4z M368.4,349.7c0.4-3.2,0.8-6.7,1.1-9.4 M327,382.8h-1.4l1.1-1.3
		L327,382.8z M325.4,353.2l3.3,8.7l-3.7,10l-0.1,4.9l-9.7-5.5l-2.8-1.6l-9.1-5.1l-3.5-12.3c0-1,0.2-4.9,0.4-9l14-0.4l3.6,0.4
		l4.8,0.7l-0.5,1.7L325.4,353.2z M319.8,356.9 M359.3,369.7c1.5-1.8,2.9-3.5,4.2-5.1 M358.4,366c-4,4.8-8,9.3-9.5,10.1
		c-2.8,1.5-12.4,2.3-15.9,2.6c-0.6,0-1.1,0.1-1.5,0.1c-1.5,0.1-2.7-0.1-3.5-0.3l0.1-5.9l4-10.6l-4-10.6l-4.6-10.2l-8.3-1.3
		l-14.9,0.4c0.2-2.7,0.4-5.1,0.7-6.3c0.8-3.8,3.9-10.4,5-12.3c0.6-1.1,2.7-3.7,4.6-5.8l2.2-2.2c0.2-0.2,0.4-0.4,0.6-0.5
		c1.7-1.3,7.2-4.1,9.8-4.2c0.4,0,1-0.1,1.7-0.1c3.8-0.2,10.8-0.6,14,0.1c3.6,0.7,9.2,1.9,10.1,2.2c1.1,0.5,7.8,3.5,9.8,4.4
		c1.6,0.8,5.4,5.2,7.4,7.9c1,1.3,1.2,7.9,0.7,12.4c-0.4,3.4-2.2,19.9-2.6,22.8c-1.1,1.4-2.4,3-3.7,4.7L358.4,366z M360.3,312.8
		l0.8-1.3h0l-0.4,1.5C360.5,312.9,360.4,312.9,360.3,312.8z M348.2,274.8l0.2-1.8c0.4,0.5,0.8,1,1.1,1.4
		C349,274.6,348.6,274.8,348.2,274.8z M343.7,306.7c-1.5-0.3-3-0.6-4.3-0.9c-3.6-0.7-10.6-0.4-14.8-0.1c-0.7,0-1.2,0.1-1.7,0.1
		c-1,0-2.2,0.3-3.4,0.7l-2.2-9.8L306,277.1l24.3-1.2c1.7,0.3,9.8,1.8,14.9,2.1l3.1,0c0,0,0,0,0,0c1.4-0.2,3-0.8,5-1.5
		c3.1-1.2,7.4-2.7,9.1-1.6c1.5,1,4.5,5.2,7.2,8.8c3.1,4.2,6,8.2,8,9.7c0.2,0.2,0.4,0.3,0.7,0.5L363,304.6l-1.1,3.7l-4.5,3.1
		c-3.1-1.4-7.2-3.2-7.5-3.3l-0.1-0.1l-0.2,0c0,0-1.3-0.3-3-0.6L343.7,306.7z M314.4,297.9l2.2,9.8c-2.2,1-4.3,2.2-5.3,3
		c-0.2,0.2-0.5,0.4-0.8,0.7l-12.7-12.9L284,287.3c1.7-2.4,3.4-4.8,4.9-7l0.1-0.2c0,0,1.6-2.9,3.5-2.9c3,0.1,9.6,0,9.9,0l0.1,0
		L314.4,297.9z M257.5,318c0.2-0.4,0.3-0.8,0.4-1.1c1.4-3.2,5.4-7.8,7.4-8.4c0.6-0.2,1.2-0.3,1.8-0.5c1.9-0.4,3.9-0.8,5-3.3
		c0.5-1.1,5.1-7.8,10-14.9l13.6,10.9l12.6,12.8c-2.1,2.3-4.3,5.1-5.1,6.4c-0.8,1.4-2.7,5.3-4.1,9.1l-1,3c-0.1,0.4-0.2,0.8-0.3,1.2
		c-0.3,1.5-0.6,4.2-0.8,7.1l-7.1,0.2l-0.3,0.2c-10.3,5.8-28.3,15.7-35.1,19.5c-0.1-0.4-0.3-0.8-0.4-1.2c-1.5-5.4-2.8-14.2-2.4-18.7
		c0.3-3.3,2.9-13.4,4.7-19.4L257.5,318z M284.9,398.7c-0.5-0.3-1-0.5-1.6-0.8c-4.9-2.6-10.9-5.7-12.7-7.8c-1.2-1.5-3.4-5.7-5-9.1
		l-1.1-2.6c-1.8-3.9-3.1-6.6-4.3-7.9c-1.7-1.8-3.3-4.4-4.5-7.2c6-3.4,34.7-19.3,35.2-19.6l6-0.2c-0.2,4.5-0.4,8.7-0.4,9l0,0.2
		l3.9,14l6.9,3.9l2.8,1.6l13.7,7.7l-25.5,31.5c-2.3-3.4-5.2-7.6-7.7-9.4c-0.7-0.5-1.7-1.1-3-1.8L284.9,398.7z M365.7,361.9
		c0.1-0.1,0.2-0.2,0.2-0.3 M333,418.8c-0.4,0.1-0.7,0.3-0.9,0.7c-0.1,0.2-0.3,0.4-0.5,0.8c-0.9,1.6-3.8,6.4-6.5,6.3l-3.8-0.1
		c-9.1-4.6-19.1-10-20.2-11.2c-0.2-0.3-0.6-0.7-0.9-1.2l23.1-28.5h7.2l-0.7-3.7c0.3,0,0.5,0,0.8,0c0.4,0,0.7,0,1.1-0.1
		c0.4,0,0.9-0.1,1.4-0.1c0.8-0.1,1.5-0.1,2.3-0.2l4.7-0.5c4.4-0.5,8.2-1.2,10.2-2.3c1.4-0.8,4-3.4,6.7-6.5l10.5-14.7
		c0.1-1.2,0.3-2.9,0.5-4.8l1.8-15.6c0-0.4,0.1-0.8,0.1-1.1c0-0.1,1.1-11.3-1.3-14.6c0-0.1-2.7-3.7-5.4-6.3l2.5-8.7l15-10.7
		c3.9,3,8.8,7,9.4,7.5c0.2,0.2,0.5,0.5,0.5,0.5l0.3,0.4l8.5,9.7c0,0,0.7,1.2,0.8,1.6c0.3,2.1,0.5,13.1,0.6,19.9l0.4,4.3
		c0.6,1.1,2.9,5.1,4.3,8.5l1.1,2.9c0.3,1.1-0.3,2.8-0.9,4.7c-1,3.2-2.3,7.3-0.6,11.5l2.2,3.6c5.5,7.6,11,16.4,11.1,18.3
		c-0.6,1.1-4.5,3.2-8.6,5.3l-3.1,1.5c-1.8,0.9-3.5,1.7-4.8,2.3c-3.8,1.8-7.1,3.3-8.9,4.5c-2.9,1.7-8.7,6.6-14.3,11.4l-2.7,2.3
		c-3.4,2.9-7,6-7.9,6.5c-1.7,0.3-11.3-1.2-18.4-2.3c-2.6-0.4-5.1-0.8-7.4-1.1l-3.1-0.4c-0.1,0-0.3,0-0.4-0.1c-1-0.1-1.9-0.2-2.6-0.3
		L333,418.8z M372.6,364C372.6,364,372.6,364.1,372.6,364 M433.6,126.6c11.2,10.1,79,71.7,89.9,81.7c10.8,9.9,12.8,16.2,12.9,16.8
		l1.6,12.5l0,0.5c-4.6,0.9-19.7,3.9-24.6,5c-3.3,0.7-9.5,0.8-15.1,0.8c-4.3,0-8.3,0.1-11,0.4c-6.4,0.7-25.2,10.3-27,11.2l-41.7,13.7
		l-18.7,3.2l-10.6,7.9l-8.8,11.5c-0.5-0.3-0.9-0.7-1.3-0.9c-1.7-1.2-4.7-5.4-7.4-9.1c-3.2-4.4-6-8.2-7.9-9.5
		c-2.9-2-7.4-0.4-11.4,1.1c-1.4-1.7-3-3.9-3.8-4.8l3.9-36.3l29.7-46.8l15.5-19.7l20.8-17.6l14.1-20.7L433.6,126.6z M349.2,225
		 M381.3,121.1 M379.6,183.5c0,0.4-0.2,0.9-0.4,1.3l-25.7,40.4l-4,7l-4.5,42.8c-3.8-0.3-9.8-1.2-13.3-1.8l-5.7,0l-20.4,1
		c-0.9,0-1.8-0.4-2.3-1.3l-2.2-3.7c-0.2-0.3-0.3-0.7-0.3-1l-1.3-14.5c0-0.2-0.1-0.4-0.1-0.5l-9-28.3c-0.1-0.2-0.1-0.5-0.1-0.8v-17.4
		c0-3.2-4.8-23.1-5.4-25.5c-1-3.8-6.4-14.4-6.6-14.9l-0.1-0.2l-0.2-0.2c-0.1-0.1-8-7.6-10.5-10c-0.3-0.3-0.6-0.7-0.7-1.1
		c-0.4-1.5-0.8-5.4,0.1-15.9c0.3-3-1.2-6.9-2.7-10.7c-0.9-2.4-1.8-4.7-2-6.3c-0.4-2.9-0.3-22.9-0.2-36c0-1.2,0.9-2.2,2.1-2.5
		l24.2-4.4c0.1,0,0.3,0,0.5,0h7.1c0.2,0,0.3,0,0.5,0l2.9,0.5l8.7,3.1c9.9,4.5,30.1,13.6,39.1,16.2c12,3.4,31.4,5.1,32.2,5.1
		c0,0,0.9,0.1,2.3,0.2l3.2,0.2c3.8,0.3,9,0.7,14.1,1.1c8.8,0.7,15.2,5.1,15.8,5.5l16.5,13.8l-0.9,1l-14,20.5l-20.7,17.6l-12.8,16.3
		L379.6,183.5z M224.3,248.3l-42-16.4L154,218.7l-30.6-11.9c0-2.1,0-6.3-0.3-7.8c-0.2-1-0.6-2.2-1.2-3.7c-0.5-1.4-1.1-3.2-1.7-5.2
		c-0.9-3.1-0.8-4.1-0.3-7.2c0.1-0.6,0.2-1.3,0.3-2.1c0.5-3.6,5.9-18,8.1-23.5c1-1.3,7.6-10,10-12.3c2.5-2.4,10.3-7,10.8-7.3
		l18.4-9.9l3.2-1l1.8-0.4l12.2-0.7l11.9-3.7l7.7-4.3l3.7-1.1L244,89.5l15-5.1c-0.1,9-0.3,34,0.2,37.6c0.3,2,1.2,4.4,2.2,7
		c1.3,3.3,2.7,7,2.5,9.3c-1.3,14.8-0.2,18,1.2,19.3c1.9,1.7,9.3,8.9,10.7,10.1c0.8,1.6,5.4,10.8,6.2,14c1.1,4.1,5.3,22.4,5.3,24.8
		v18.2l9.2,29.1l1.9,20.4c-2,0-4.3,0-5.8,0c-3.7-0.2-6,3.7-6.4,4.5c-0.6,0.9-2.4,3.5-4.7,6.7l-31-24.9l-0.1-0.1L228.5,250
		L224.3,248.3z M115.5,252.5l0.9-3.2L123,210l29.7,11.6l28.4,13.2l45.7,17.9l22,10.4l31,24.9c-4.5,6.5-9.7,14.1-10.4,15.5
		c-0.5,1-1.1,1.2-2.9,1.6c-0.6,0.1-1.3,0.3-2.1,0.5c-3.5,1.1-8,6.8-9.4,10.2c-0.2,0.4-0.3,0.9-0.6,1.5l-27.6-6.8
		c-0.8-0.2-12.9-3.9-25.2-7.4c-26-7.4-27.4-7-28.2-6.8c-1.8,0.5-5.3,3.1-10.1,6.7c-2,1.5-4.5,3.4-5.1,3.6c-1.1,0.3-10.6,0.8-19.1,1
		c-0.1,0-6.2,0.1-9.4-2.9c-2.9-2.7-10.7-15.7-13.5-20.5l-0.3-0.5l-13.6-4.9L115.5,252.5z M170,389.2l-56.8,15.9l-8.5-29.9l0,0
		l-6.4-21.4l-0.6-32.1l0.1-3.1l1.5-30.5l2.2-6.5l12.7,4.6c1.7,2.9,10.2,17.5,13.8,20.8c4.1,3.8,11.2,3.7,11.6,3.7
		c4.2-0.1,18.2-0.6,20-1.2c0.8-0.3,2.3-1.4,6-4.1c3-2.3,7.5-5.7,9-6.2c0,0,0,0,0.1,0c3.5,0,33.4,8.6,51.6,14.1l27.5,6.8
		c-1.9,6.1-4.5,16.1-4.8,19.9c-0.4,5,1,14.1,2.5,19.8c0.2,0.7,0.4,1.3,0.6,1.9c-3.6,1.3-51.9,17.4-78.8,26.5L170,389.2z
		 M156.9,491.5l-11.7-29.7l-6.5-19.4l-23.3-32.5l-1-1.8l57.9-16.2l0.1,0c34.8-11.7,76.1-25.5,80.5-27c1.7,4.1,3.8,6.6,5,7.9
		c0.9,1,2.3,3.9,3.8,7.3l1.4,2.7c1.7,3.6,3.6,7.8,5.1,9.5c2.2,2.6,8.3,5.7,13.6,8.6c0.4,0.2,0.7,0.4,1.1,0.6l2.8,1.5
		c1.3,0.7,2.4,1.4,3.1,1.9c2.1,1.5,5,5.7,7.1,8.7c0.2,0.2,0.3,0.4,0.5,0.7l-76.3,84.6l-16.7,13.7l-2.6,2.1l-17.9,14.7l-24.3-34.9
		 M212.7,576.3l-28.2-44.6l37.6-30.8l0.1-0.1l72.4-80.3l4-3.4c0.1,0.1,0.2,0.2,0.3,0.3c2,2.2,18.1,10.4,21.3,12l0.3,0.2l4.5,0.1
		c0.1,0,0.1,0,0.2,0c3.1,0,5.7-2.8,7.4-5.2c-0.3,4.2-0.5,8-0.5,8.3l0,0.1l2.4,23.3l4.1,19l-7.1,15.9l0.6,51.2L313,611l0,0.1
		c-0.1,0.7-3.1,17.1-3.4,20.6c-0.1,0.9-0.1,2.1,0,3.4l-2-0.2l-11.9-4.9l-61-26.6l-7.1-5.6L214.5,579L212.7,576.3z M364.3,496.5
		l2.4,16.5l-2.5,21l7.1,13.7l-4.3,1.8l0,1c0,0.6,0.1,14.1,0.2,15.5c0.1,1.7,1.7,5.7,2.5,7.2c1.2,2.3,9.1,18,9.7,19.7
		c0.2,0.7,0.7,4.6,1,7.7c0.7,6.1,1.2,10.5,1.8,12.3c1,2.8,10,18,13,23l-9.4,5.1l-7.1,1l-43.5-3.8l-22.7-2.7c-0.1-1.3,0-2.5,0-3.5
		c0.3-3.3,3.1-19,3.4-20.2l19.1-68.8l0.1-0.2l-0.5-50.9l8.7-15l-5.8-21.2l-2.3-22.7c0-0.4,0.1-2,0.2-4.1l0.3-6.5
		c0-2,5.4,2.1,5.7,0.3c2.5,0.4,5.2,0.8,7.7,1.2c14.4,2.2,18.8,2.8,20.2,2.1c0.9-0.5,3.2-2.3,7.2-5.8c0.1,0.5,0.1,1,0.1,1.3
		l-4.1,47.6L364.3,496.5z M482.4,563.8 M411.3,368.5c-0.3-0.1-1.1-0.2-2.1-0.4c0-0.1-0.1-0.1-0.1-0.2c-2.6-3.8-1.5-7.6-0.3-11.2
		c0.7-2.3,1.4-4.6,0.9-6.5c10.9-3.5,29.7-10.1,30.6-10.4l101.2-36.1v49.2c-0.1,1.6-2.6,44.2-3.6,50.7c-0.5,3.3-1.6,7.2-2.8,11.3
		l-0.9,3c-0.1,0.2-0.1,0.4-0.2,0.6c-0.9,3-1.8,5.8-2.5,8.4c-2,7.4-2.1,18.1-2.1,18.5l0,0.1l0.5,2.7l0.8,4.3l7,32.2l1.3,16.6
		l-5.9,11.3L521.3,527l-19.1,22.2l-15.6,16l-2.5,2.4l-27.2,25.7l-19.7,14.8l-2.5,1.9l-34.3,23.2l-2.3,1.2c-5-8.4-12-20.5-12.8-22.5
		c-0.6-1.6-1.2-7.1-1.7-11.6c-0.5-4.7-0.9-7.5-1.2-8.4c-0.7-2-9.3-18.9-9.9-20c-0.9-1.7-2.1-5.1-2.1-6c0-0.9-0.1-9.2-0.2-14.3
		l5.5-2.3l-8.3-15.9l2.3-19.4l0.6-6l-0.8-3.9c0.2-3.7-0.8-6-0.6-6.7c0.1-0.3-0.7-1.6,0.2-3.7c2.4-5.4,4.5-10,4.8-11.2
		c0.6-2,2.1-14,2.6-18.6c0.5-5,3.4-39.3,3.2-42.7c0-0.7-0.2-2-0.5-3.5c5.6-4.8,12.3-10.5,15.2-12.2c1.7-1,5.1-2.6,8.7-4.3
		c2.3-1.1,4.4-2.1,6.2-3l3.1-1.5c6.3-3.2,8.8-5.1,9-7c0.4-2.8-5.3-11.6-9.6-17.7L411.3,368.5z"/>
</g>
<g opacity="0.49">
	<path fill="none" stroke="#EBE7DE" stroke-miterlimit="10" stroke-dasharray="2.9956,2.9956" d="M221.4,217.4c0,0,6.3-7.6,13.9-15
		c7.5-7.4,16.9-11.6,23.4-14.4c6.5-2.8,14-12.9,21.4-11.1c7.4,1.8,28.5,8.6,36.6,8c8.1-0.6,30.3-2.2,38.1,0
		c7.7,2.2,12.2,5.4,28.4,12.2s30.1,17.2,35.5,20.4c5.4,3.2,29.1,9.8,32.8,19.7c3.7,10,4.4,20.1,3.1,29.7c-1.3,9.6-5,16.3-2.6,29
		c2.3,12.7,3.2,27.8,3.2,38.7s0,5.2-5.6,17.3s-12.6,29.3-14.9,33.5c-2.3,4.2-14.7,8.6-22,11.3s-20.1,11.6-25.8,14.8
		c-5.7,3.2-19.9,14.4-23.3,19.3c-3.4,4.9-15,14.4-25.2,16.2c-10.2,1.8-20.9-1.6-27.2-12.5c-6.3-10.9-16.6-15.9-21.2-22.1
		c-5.3-7-18.3-12.2-20.8-14.3c-2.5-2.1-7.8-11.6-11.5-17.4c-3.7-5.8-13.3-28.2-15.5-37.9c-2.2-9.7-5-24.4-8.6-31.5
		c-3.6-7-7.6-5.4-6.1-15.5c1.5-10.1-8.3-28.3-9.6-35.7c-1.4-7.4-9.4-17.7-8.9-23.7C209.3,230.4,221.4,217.4,221.4,217.4z"/>
</g>
</svg>
