<?xml version="1.0" encoding="utf-8"?>
<!-- Generator: Adobe Illustrator 19.1.1, SVG Export Plug-In . SVG Version: 6.00 Build 0)  -->
<svg version="1.1" xmlns="http://www.w3.org/2000/svg" xmlns:xlink="http://www.w3.org/1999/xlink" x="0px" y="0px"
	 viewBox="0 0 338 417.4" style="enable-background:new 0 0 338 417.4;" xml:space="preserve">
<style type="text/css">
	.st0{fill:#FAF9F6;}
	.st1{fill:none;stroke:#D6D2C9;stroke-width:0.5;stroke-miterlimit:10;}
	.st2{opacity:0.6;fill:#7EBB48;enable-background:new    ;}
</style>
<g id="background_color">
	<g>
		<path class="st0" d="M26.2,261.4l1.5,1.8c0,0,1.5-0.9,2.1-1.7c0.6-0.8,0.8-1.8,0.8-1.8l5.3-1c0,0,0.3,0.4,0.7,0.8s0.2,2.4,0.2,3.1
			c0,0.8,0.1,2.8,0.4,4c0.4,1.1,2.6,0.8,3.2,0.6c0.6-0.2,0.8-2.5,0.8-3.5c0-1,2.1-1.5,3.1-1.3c1,0.2,1.9,1.6,2.3,2.4
			c0.4,0.8,2.1,0.9,4.3,0.8c2.2-0.1,8.4-3.5,8.4-3.5c-0.5-1-3.2-3.6-3.6-4c-0.4-0.4-1.9-0.8-1.9-0.8c-0.4-2.9,2.4-5,2.4-5l-0.8-1.1
			l4.6-3.1l-1-0.9c0,0-0.2-1.5,0-3.5c0.2-2-3-7-4.3-8.7c-1.3-1.6-8.6-11.3-9.7-13.3l-0.3,8.8l3.5,2.3l-4.6,5.3l-2.8-2.5l-8.3,13.4
			l-3.2-2.8l-1.8,3.7l-10.6-5.1l6.9-11.5l1.4,7.4h5.8l-3.9-6.2l1.1-6.7l4.6-4.6l-0.2,3l4.6,0.7c0,0,0.5-2.8,0.7-4.6
			c0.2-1.8-2.1-4.4-2.1-4.4l7.3-2.1c-1.4-4.7-2.9-10.6-3.6-12.7c-1-3.4-3.3-11.8-3.7-14c-0.3-2.2-0.1-19.4-0.1-21.6
			c0-0.5,0-1.5,0.1-2.8l2.3,2.2l4.8-0.3l2,1.1c0,0,8.5-0.4,10.7-1.3l2-2.9c0,0,8.7,2,11.7,1.2c3.1-0.8,5.8-2.7,7.5-2.4
			s2.9,1.4,3.8,3.4c0.9,2,2.1,4.3,2.7,5.3c0.6,1.1,1.3,2.5,1.2,3.4c-0.1,0.9-1.3,4.5-2.4,5.6c-1.2,1.1-3.1,3.5-5.3,3.9
			c-2.3,0.4-5.4,1.8-5.8,2.2c-0.3,0.4-2.6,2.3-0.2,4.3c2.4,2,6.6,5.8,10.4,4c3.8-1.8,9-4.8,8.9-11.5c-0.1-6.7-0.3-11.4,1.4-12.1
			c1.7-0.7,2.6-0.6,2.6-0.6c1.8-0.1,3.9-0.3,6.6,1.9c2.8,2.1,5,3.5,5.9,4.1c0.6,0.4,1.9,1.2,2.9,2.3c0.5,0.6,0.9,1.2,1.1,1.9
			c0,0,1.8,6.9,2.8,8.3c0.9,1.4,5,5.1,8.9,2.3c3.9-2.8,7.5-6.3,9.4-6.9c1.9-0.6,7-1.7,7.4,1.9c0.4,3.6,0.1,7.6-2.7,11
			c-2.8,3.4-7.3,7.3-9.3,8.8c-2.1,1.5-5.1,3.6-4.3,7.5c0.7,3.7,3.7,9.4,9.1,9l0,0.1c0,0-10.6,14-11.7,15.2
			c-1.1,1.2-11.8,11.6-11.8,11.6l5.9,5.5l-7.7,9.6l-25.8,22.3l-0.1,0.1l-13.3-20.6c0,0-4.4,0.3-5.2,0.3c-0.8,0-3,0.7-3,0.7
			s-0.8,2.6-0.1,3.3c0.7,0.7,1.1,1.3,1.1,1.3s0.3,1.8,0,2.2c-0.3,0.3-1.3,1.5-1.2,1.9c0.1,0.4,0.6,1.2,0.6,1.6s0.9,0.7,0.9,0.7
			s-0.1,6.3-0.1,6.6c0,0.4-0.3,2.6-0.8,2.9c-0.5,0.3-1.8,0.6-2.1,1c-0.3,0.3-0.6,2.2-0.6,2.2l-0.8,3.6c-1.5-1-5.5-1.2-5.5-1.2
			l-0.4,2c-1.7,0.7-4.9-0.3-4.9-0.3L46,292l-1-0.2l-5.3,5.9l0.8,1.1l-0.7,1l-4-3.6l0.2-2l-1.5-1.3l-1.5,0.8l-1.5-1.7l0.3-1.7
			l-1.8-1.3l-1.3-0.1l-2.8-1.7c0,0-1.4,1.3-2,1.7c-0.6,0.4-2,0.8-2,0.8s-1.8-1.1-2-1.2c-0.2-0.1-0.6-1-0.6-1.4
			c-0.1-0.3-1.3-2-1.9-2.1c-0.6-0.1-1.2-1-1.4-1.8c-0.2-0.8,0.8-1.5,1.3-2.2c0.6-0.6-0.3-2.4-0.6-3c-0.3-0.6,1.4-2.6,1.7-3.1
			c0.4-0.5,1.9-2.5,2.2-2.8c0.3-0.3,1.7-0.8,2.2-1.3c0.5-0.4,1.3-0.6,1.6-1.3c0.4-0.6-1.2-3.2-1.5-3.7c-0.3-0.5,1-1.2,1.5-1.6
			C25,264,26.2,261.4,26.2,261.4z"/>
	</g>
	<g>
		<path class="st0" d="M127.9,403.9c-0.6,0-3,1-3.3,1.1c-0.3,0.1-1.6-0.1-1.9-0.2c-0.3-0.1-0.8,0.3-1.1,0.3c-0.3,0-1.7-0.7-2.1-0.8
			c-0.4-0.1-0.5,0.5-1.1,1c-0.5,0.5-0.8,0.2-1.3,0.1c-0.5-0.1,0-2.9,0-3.4c0-0.5,2.6-0.4,2.6-0.4s0.3-1.7,0.3-2.1
			c0-0.4,0.6-0.8,1.2-1.1c0.6-0.3,0.7-2.2,0.7-2.2s-4.5-4.6-5-5.2c-0.4-0.6-2.2-1-2.9-1.2c-0.8-0.2-1.5-0.8-1.7-1.1
			c-0.2-0.3-0.7-1.5-1.1-1.9c-0.4-0.4-3.5-1.4-4.3-1.5c-0.7-0.1-4.1-0.2-5.2-0.2c-1.1,0-3.6-1.4-4.1-1.7c-0.6-0.3-1.9-0.5-2.5-0.5
			c-0.6,0-1.6,1.4-2.3,1.9c-0.7,0.5-1.4,0.4-1.9,0.1c-0.5-0.3-0.3-2.4-0.3-2.9c0-0.4-0.8-1.4-1.1-1.7c-0.3-0.4-0.1-1.3,0.3-2.2
			c0.4-0.8,0.6-2.5,0.6-2.5s2.9-1.2,3.6-1.4c0.6-0.2,1.3-0.4,2.2-0.4c0.9,0,3.8-0.3,5.7-1.2c1.9-0.8,4.7-2.7,5.4-3.7
			c0.7-1,1.7-2.7,2.2-3.1c0.5-0.5,7.3-5.8,7.3-5.8s5.6,2.2,7.5,2.7c1.9,0.5,3.8-2.2,3.8-2.2l0.7,0.1l1.4-5.8l-2-0.7l-0.4-1.1
			l0.9-0.6l-0.3-3.4c0,0-1.5-0.8-1.7-1c-0.3-0.1-0.2-1-0.2-1s-1.1-0.5-1.7-0.6c-0.6-0.1-3.4-1.6-3.8-1.9c-0.4-0.3,0.4-1.1,0.9-1.3
			c0.6-0.2-0.7-2.4-0.9-3c-0.2-0.6,1.4-0.9,1.9-0.8c0.5,0.1,1.9,0.4,2.5,0.3c0.6-0.1,1.2-0.8,1.5-1.3c0.3-0.5,1.6,0.5,1.7,0.8
			c0.1,0.4,1.1-0.3,1.3-0.7c0.1-0.4-0.8-0.9-1.4-1c-0.5-0.1-1.5-1.5-1.5-1.9c-0.1-0.3-0.6-1-0.9-1.2c-0.3-0.2-0.3-0.5-0.5-0.8
			c-0.2-0.3-0.7-1.2-0.7-1.2s-8.9-3.8-14.1-6.1c-5.2-2.3-9.5-7.8-9.5-7.8l-20.6-31.9l0.1-0.1l25.8-22.3l7.7-9.6l-5.9-5.5
			c0,0,10.7-10.4,11.8-11.6c1.1-1.2,11.7-15.2,11.7-15.2l0-0.1c0.4,0,0.8-0.1,1.2-0.2c6.2-1.4,7.8-3.5,7.8-3.5s1.6,2.1,3.1,4
			c1.1,1.5,2.1,2.9,2.4,3.3c0.5,1,3.2,5.8,3.9,7.7c0.8,1.8,4.1,6.2,4.8,6.8l-0.2,3.8l1.9,1.1l2.3-0.4l0.8,3.5c0,0-1.3,1.4-1.3,1.9
			c-0.1,0.5-0.2,1.2-0.6,1.7c-0.4,0.5-2.7,2-2.8,2.6c-0.1,0.6-0.4,1.1-0.1,1.7c0.3,0.6,0.7,0.8,0.7,0.8l0.1,2l2.4,2.6l-2.1-0.3
			l-0.5,1.5c0,0,2.3,0.9,3.4,1l-3.8,6.1l0.1,13.2c0,0-5.3,0.2-6.7-0.4c-1.4-0.6-5.8-3-5.8-3L142,281c0,0,2.3,1.2,1.8,3.3
			c-0.5,2.1-0.6,2.4-0.6,2.4l-1.6,1.8l-0.3,1.6l4.4,1.1l-2.8,7.6c0,0-2,0.4-2.3,1c-0.3,0.6-1.2,2.2-0.5,2.2c0.7,0,1.8-0.9,1.6-0.3
			c-0.2,0.7-0.6,1.4-0.1,1.6c0.5,0.2,0.8,0.4,0.6,0.8c-0.3,0.3-0.5,0.8-0.5,1.3c0,0.6,0.1,1.1-0.3,1.3c-0.4,0.3-0.6,0.4-0.6,0.9
			s0.6,3.3-0.3,3.4c-0.9,0.2-2.8,0.3-2.2,1.4c0.6,1.2,0.5,1.9,0.9,1.8c0.4-0.1,0.9-0.3,0.9-0.3l1.3,2l1.5-0.1l-1.1,5.2l1.7,0.6
			c0,0-0.3,1.8-1.5,1.8l-0.9,6.3l0.9,1.8l-1.9,5.2l9.1,3.8l2.9,5.8v2l1.2-0.2l0.1,0c0.5,1.5,1.2,3.3,1.2,3.3s-6,4.3-6.5,5.3
			c-0.6,1-1.5,3.2-1.8,5c-0.3,1.8-2.1,14.4-2.2,14.8c-0.1,0.3-2,13.9-2,13.9s1.5,0.8,1.8,1.4c0.3,0.6,7.2,9.5,7.2,9.5l-0.2,2.3
			l3.6,3.2l-0.5,1.4l0.1,2.2l-1.5,1.5l-0.3,1.1l-3,2.4l-0.9-1.3l-1,0.7l0.7,1.9l-9.9-7.3l2.8-15.5l-7.2,0.1c-3,5.4-8.9,3.6-9.3,3.4
			l6.7,4.3l-0.7,2.1C130.5,403.8,128.5,403.9,127.9,403.9z"/>
	</g>
	<g>
		<path class="st0" d="M112.9,176l1,1.3l6.4-3.5l0.9-3l4.6-5.4c0,0,10.9-1.8,14.3-2.1c3.4-0.4,4.9-5,4.9-5l1.4-9.6l5.4-0.4l1.5,6.5
			l1.4-0.1l3.8,1.9l1.4-0.1c0,0,0.9-1.3,1-2.4c0.1-1.1-0.1-6.3-0.1-6.3l9,1.3l0.4-5.6c0,0,1.4,1,2.4,1.8s2.6,1.6,3,2.6
			c0.3,0.9,0.6,2.2,2.5,3.1c0.3,0.1,0.6,0.3,1,0.4c2.9,0.9,18,5.9,18,5.9s5.1-0.1,7,0.3c1.9,0.4,2.9,1.1,4.1,3.4
			c0.3,0.6,0.8,1.5,1.4,2.6l0,0l-8,7.5l-2.5-2.4l-1.9,0.3c0,0-0.6,2.5-1,3.8c-0.4,1.3-1.1,4.9-1.1,4.9l-5.9,0.3c0,0-1.3,0.6-1,1.6
			s0.9,3,0.9,3.5s-0.1,1.3-0.9,2.3l5.3,2.4c0,0,6.8,4.8,8.1,6.4c0,0,0,4.5,0.5,5.1l-2.5,5.8l-5-4.5l0.3,2.5l-3,2.3l-4.4,2.4
			l-2.1-5.1l-2.4,1.4c0,0,0.8,1.9,1.2,3.5l-0.1,0l-2.8,0.2c0,0-1-1.8-1.5-2.2l-0.9,0.9l-3.3-1.4c0,0-1.1,3.8-1,5.9l-1,0.3l-2.5-1.3
			l-0.5,1.8c0,0-0.9-0.9-2.2-0.5c-1.3,0.4-8.2,2.2-8.2,2.2l-0.3-0.8l-2.3-0.3l-0.3,1.7l-4.7-1.6l-8.7,10.5c-1.5-2-3.1-4-3.1-4
			s-1.7,2.1-7.8,3.5c-0.4,0.1-0.8,0.2-1.2,0.2c-5.4,0.4-8.4-5.4-9.1-9c-0.8-3.9,2.3-6,4.3-7.5c2.1-1.5,6.6-5.3,9.3-8.8
			c2.8-3.4,3.1-7.4,2.7-11c-0.4-3.6-5.5-2.5-7.4-1.9c-1.9,0.6-5.5,4.1-9.4,6.9c-3.9,2.8-8-0.8-8.9-2.3c-0.9-1.4-2.8-8.3-2.8-8.3
			c-0.2-0.7-0.6-1.3-1.1-1.9l0.1-0.1L112.9,176z"/>
	</g>
	<g>
		<path class="st0" d="M283.6,239.2l2.2,2.7l-4.3,12.6l-11.9-9.8c0,0,3,13.4,3.6,16.2c0.6,2.8,2.3,9.3-3.1,16
			c-5.4,6.8-16.4,19-17.1,19.9c-0.3,0.4-1.5,1.5-2.6,2.6c-1.1-0.8-3.2-2.7-3.5-4.7c-0.4-2-1.9-6.9-1.9-8.6s0-6.4,0.1-8.9
			c0.1-2.5-1.4-1.1-2.9-0.9s-13.1,6.1-15.1,6.9s-7.9,0-9.6-0.3s-5.9,1.1-7.6,1.3c-1.8,0.1-7.9-2.6-10.1-3.9s-11.4-8.9-11.4-8.9
			s1-9.8,1.8-11.9c0.8-2.1,13.3-7.8,16.6-9.6c3.4-1.9,2.6-7.5,1.8-10c-0.9-2.5-6.3-5-7.9-5.8c-1.6-0.8-8.3-1.8-9.4-2
			c-1.1-0.3-1.5-0.5-1.9-1.3c-0.4-0.8-3.1-1.3-3.1-1.3s0.3-2.1,0.4-3.5c0.1-1.4-1.1-7.9-1.5-10.3c-0.4-2.4-0.6-5.9-0.6-7.1
			c0-0.4-0.2-1.1-0.4-1.9c-0.5-1.6-1.2-3.5-1.2-3.5l2.4-1.4l2.1,5.1l4.4-2.4l3-2.3l-0.3-2.5l5,4.5l2.5-5.8c-0.5-0.6-0.5-5.1-0.5-5.1
			c-1.4-1.6-8.1-6.4-8.1-6.4l-5.3-2.4c0.8-1,0.9-1.8,0.9-2.3s-0.6-2.5-0.9-3.5s1-1.6,1-1.6l5.9-0.3c0,0,0.8-3.6,1.1-4.9
			c0.4-1.3,1-3.8,1-3.8l1.9-0.3l2.5,2.4l8-7.5l0,0c1.7,3.3,4,8.3,3.5,10c-0.8,2.3-3.4,10.1,0.9,12.2c4.3,2.1,9,4.8,10.4,6.4
			c1.4,1.6,3.1,4,4.1,4.1c1,0.1,5.1,1.1,6.9,2.4s8.6,7.3,10.5,8.1c1.9,0.9,14.3,8.5,16.4,9.5c2.1,1,18.1,11.8,21,14.5l-1.1,1.4
			l3.5,4.7L283.6,239.2z"/>
	</g>
	<g>
		<path class="st0" d="M325.2,212l0.9,4.4l4.5-0.9c0,0,1.5,2.7,3.3,2.7c1.8,0,5,1.2,3.6,2.4c-1.5,1.2-3.3,1.2-2.1,2.7
			c1.2,1.5,1.8,2.7,1.8,2.7l-11.3-2.1c0,0,0,3.3,2.1,4.1c2.1,0.9,6.2,2.4,6.2,4.5l-7.7,1.5c0,0,0,2.1,1.8,3.3
			c1.8,1.2,5.3,1.8,5.3,4.2c0,2.4-0.3,4.5,0,6.8c0.3,2.4,1.5,6.8,1.5,6.8s-7.1-2.7-10.4-2.4c-3.3,0.3-13.4,0-13.4,0s0-4.1-1.2-4.5
			c-1.2-0.3-3-2.7-1.5-4.4c1.5-1.8,2.4-2.4,3.3-3.3c0.9-0.9,4.1-7.4,2.1-6.5c-2.1,0.9-4.1,4.4-4.1,2.1c0-2.4,0.3-6.2,0.3-6.2
			l-4.8-0.3l-0.3-4.1v0c0,0,4.7,0,7.1-1.2c2.4-1.2,3-5.3,3.3-7.7c0.3-2.4,5.3-1.2,5.3-1.2l3.6-4.4l0.2-0.1
			C324.8,211.2,325.1,211.7,325.2,212z"/>
	</g>
	<g>
		<path class="st0" d="M152.9,346.6c0.1,0.4,0.3,0.9,0.4,1.4l-0.1,0l-1.2,0.2v-2l-2.9-5.8l-9.1-3.8l1.9-5.2l-0.9-1.8l0.9-6.3
			c1.2-0.1,1.5-1.8,1.5-1.8l-1.7-0.6l1.1-5.2l-1.5,0.1l-1.3-2c0,0-0.5,0.3-0.9,0.3c-0.4,0.1-0.3-0.7-0.9-1.8
			c-0.6-1.2,1.3-1.3,2.2-1.4c0.9-0.2,0.3-2.9,0.3-3.4s0.2-0.7,0.6-0.9c0.4-0.3,0.3-0.8,0.3-1.3c0-0.6,0.3-1,0.5-1.3
			c0.3-0.3-0.1-0.6-0.6-0.8c-0.5-0.2-0.1-0.9,0.1-1.6c0.2-0.7-0.9,0.3-1.6,0.3c-0.7,0,0.2-1.6,0.5-2.2c0.3-0.6,2.3-1,2.3-1l2.8-7.6
			l-4.4-1.1l0.3-1.6l1.6-1.8c0,0,0.1-0.3,0.6-2.4c0.5-2.1-1.8-3.3-1.8-3.3l0.8-1.5c0,0,4.4,2.4,5.8,3c1.4,0.6,6.7,0.4,6.7,0.4
			l-0.1-13.2l3.8-6.1c-1.2-0.1-3.4-1-3.4-1l0.5-1.5l2.1,0.3l-2.4-2.6l-0.1-2c0,0-0.3-0.3-0.7-0.8c-0.3-0.6,0-1.1,0.1-1.7
			c0.1-0.6,2.3-2.1,2.8-2.6c0.4-0.5,0.5-1.2,0.6-1.7c0.1-0.5,1.3-1.9,1.3-1.9l-0.8-3.5l-2.3,0.4l-1.9-1.1l0.2-3.8
			c-0.8-0.6-4.1-4.9-4.8-6.8c-0.8-1.8-3.4-6.7-3.9-7.7c-0.2-0.4-1.2-1.8-2.4-3.3l8.7-10.5l4.7,1.6l0.3-1.7l2.3,0.3l0.3,0.8
			c0,0,6.9-1.8,8.2-2.2c1.3-0.4,2.2,0.5,2.2,0.5l0.5-1.8l2.5,1.3l1-0.3c-0.1-2.1,1-5.9,1-5.9l3.3,1.4l0.9-0.9
			c0.5,0.4,1.5,2.2,1.5,2.2l2.8-0.2l0.1,0c0.2,0.8,0.4,1.5,0.4,1.9c0,1.3,0.3,4.8,0.6,7.1c0.4,2.4,1.6,8.9,1.5,10.3
			c-0.1,1.4-0.4,3.5-0.4,3.5s2.8,0.5,3.1,1.3c0.4,0.8,0.8,1,1.9,1.3c1.1,0.3,7.8,1.3,9.4,2c1.6,0.8,7,3.3,7.9,5.8
			c0.9,2.5,1.6,8.1-1.8,10c-3.4,1.9-15.9,7.5-16.6,9.6c-0.8,2.1-1.8,11.9-1.8,11.9s9.1,7.6,11.4,8.9s8.4,4,10.1,3.9
			c1.8-0.1,5.9-1.5,7.6-1.3s7.6,1,9.6,0.3s13.6-6.6,15.1-6.9s3-1.6,2.9,0.9c-0.1,2.5-0.1,7.1-0.1,8.9s1.5,6.6,1.9,8.6
			c0.4,2,2.4,3.9,3.5,4.7c-1.3,1.2-2.6,2.5-3.1,2.9c-0.8,0.7-20.4,19.7-27.9,24.7c-7.5,5-24.7,16.5-24.7,16.5s-2.9,2.7-8.2,2.3
			c-5.3-0.4-30-2.3-30-2.3c-0.6-0.1-1.5-0.1-2.1,0.2C153.6,344,152.5,345,152.9,346.6z"/>
	</g>
	<g>
		<path class="st0" d="M297.4,124c0,0,1.5,0.2,2.8,0.6c1.3,0.4,2.6,0.6,2.6,2.9c0,2.2-2.4,2-2.9,1.9c-0.5-0.1-0.1-0.7,0-1.4
			c0.1-0.7-0.6-0.8-1.1-1.3c-0.5-0.5-3.5,0-4.3,0c-0.8,0-1.1,3.8-1.1,3.8l-3.5,1.7l-0.1,1.7l-1.3,0.4l0.1,1.1l-2.6,0.8l-2.4-2.5
			l-2.3,2.3l-5.7-6.3l5.4-4.3c0,0,0.6-0.7,1-1.2c0.5-0.5,5.3-2.2,5.3-2.2l-0.3-2.2l3.3-1.4l0.6,1c0,0-2.1,0.9-2.3,1.7
			c-0.2,0.8,0.9,2.2,0.9,2.2l2.9-0.6l0.5,1.3l4-1.3L297.4,124z"/>
	</g>
	<g>
		<path class="st0" d="M197.9,94.1l-2.8-1.6l1.3-1.8l2.8,1l0.9,2l-0.8,0.8l1.4,1.7c-1.7,1.1-0.1,2.9-0.1,2.9l1.8-0.8l1.8,0.9
			l5.2,0.6l0.4-0.4c0,0,0,0,1.8-2c1.8-2,1.1-5.8,0.9-7c-0.2-1.3-0.5-3.5-0.5-3.5l-9.8-0.1l4.4-3.6l-0.6-0.8l6.4-6.3l-1-0.8l0.6-1.2
			l2.8,1.8l3.3-1.4l-0.3-1.8l2.2-2.2c7.7,7.2,23.5,21.9,23.5,21.9l23,21c0,0,5.6,5.6,6.1,11.2c0.6,5.6,2.4,39.8,2.4,39.8
			s0.1,6.6,0.1,8.6c-0.1,2,0.6,18.2,0.6,18.2s12.5-1,18.4-4.5l3.5,1.2l0.9,5.4l-5.3-0.5l-3.1,3.8c0,0-3.8,0.4-5.3,2.2
			c-1.5,1.8-4.5,8.3-2.7,9.8c1.8,1.5,5,2.4,5,2.4l4.8,0.1l-0.2,1.9l4.1,0.3l0.2-2l0.8-1.4l1,1.1l1.5-0.8l2.5-0.2l4.4-1.7l0.7,0.7
			c0,0,3.6-1.3,3.8-2.2c0.3-0.9,0.6-2.9,1.3-3.1c0.7-0.3,2.7-0.5,2.7-0.5s4.3,1.9,5.5,2.9c0.9,0.8,2.9,3.2,4,4.9l-0.2,0.1l-3.6,4.4
			c0,0-5-1.2-5.3,1.2c-0.3,2.4-0.9,6.5-3.3,7.7c-2.4,1.2-7.1,1.2-7.1,1.2v0c-2.1,0.4-4.7,1-5.2,1c-0.8,0-2.8,0.1-3.2,0.4
			c-0.4,0.4-7.7,8.8-7.7,8.8l-5.8-5.1l-0.1,0.1c-2.9-2.8-18.9-13.5-21-14.5c-2.1-1-14.5-8.6-16.4-9.5c-1.9-0.9-8.8-6.9-10.5-8.1
			s-5.9-2.3-6.9-2.4c-1-0.1-2.8-2.5-4.1-4.1c-1.4-1.6-6.1-4.3-10.4-6.4c-4.3-2.1-1.6-10-0.9-12.2c0.6-1.7-1.8-6.7-3.5-10
			c-0.6-1.1-1.1-2.1-1.4-2.6c-1.3-2.3-2.3-3-4.1-3.4c-1.9-0.4-7-0.3-7-0.3s-15.1-5-18-5.9c-0.4-0.1-0.7-0.2-1-0.4v-9.3
			c0,0,6.1-13.4,6.6-14.6c0.5-1.2,2.8-6.1,3.3-8.1c0.5-1.9-0.1-12.1-0.1-12.1c0.8,0.5,2,0.3,2.9-0.3c0.9-0.5,1.1-2.6,1.1-2.6
			l6.6-6.5l-1.8-1.2L197.9,94.1z"/>
	</g>
	<g>
		<path class="st0" d="M27.7,161.6c-0.1,0.5,0.1,2.6,0.1,3c-0.1,0.4-0.5,0.9-0.8,0.5c-0.3-0.4-1.1-1.4-1.5-1.1
			c-0.4,0.3-1.2,0.8-1.2,1.1c0,0.3-0.1,2,0.4,1.6c0.4-0.4,0.5-0.8,0.9-0.7c0.4,0.1,0.8-0.1,0.7,0.6c-0.1,0.7-0.4,1.7-0.4,1.7
			l-1.7,0.5v1.1l-3.8-0.6l1-1.4l-3.4-0.7l0.1,3.5l-9.2,1.3c0,0-0.2-1.4-0.5-3c-0.2-1.6,3-1.2,3-1.2s0-3,0.5-4.8
			c0.5-1.8,5.1-2.3,5.1-2.3l0.9-2.3l-11.3-5.3l0.5-3.7L1.9,149l0.2-3.9l-1.8-0.5v-8.1l20.3,2.1c0,0,6.2-6.5,8.3-7.6
			c2.1-1.1,6.7,0,8.3,0c1.6,0,3.2,3,3.2,3l1.4-2.1l3.5-0.4c1.3-6.8,2.8-16.7,2.8-16.7c-2.7-1.2-7.2-0.2-7.2-0.2s-1.3,0.6-2.6,1
			c-1.3,0.5-3.9,3.4-4.5,4.5c-0.6,1-0.9,1.7-1.7,2c-0.8,0.3-2-3.1-2-3.1l-1.4,0.2c0,0,0.4,2-0.1,2.9c-0.5,0.8-1.6,0.1-2-0.5
			c-0.4-0.6,0.1-2.2,0.1-3.2c0-0.9-2.7-0.7-2.7-0.7l1.5-2.4l-0.8-3.1l-2.8-0.2l-0.1-1.8l2.5-1.3c0,0-1.9-1.7-2.4-2.1
			c-0.5-0.5-0.3-1.7-0.3-2.2c0-0.6,3.8-2,3.8-2c-1.7-1.4-7.5-1.8-7.5-1.8l-0.1-1.5c0,0,1.3-0.5,2-0.8c0.7-0.4,0.9-1.9,1.4-2.8
			c0.5-0.9,0.4-5.3,0.5-6.3c0.1-1,2.1-2.7,2.7-3c0.6-0.3,0.2-0.7,0.4-1.3c0.2-0.6,2.7-0.3,3.3-0.3s1.6-0.2,2.5-0.3
			c0.9-0.1,0.5-2.5,0.6-2.9c0.2-0.4,3.1-0.9,3.8-0.9c0.8,0,2,0.5,2.3,0.5c0.3,0,3-0.6,3-0.6l1,1c0,0-0.2,0.8-0.7,1.7
			c-0.5,0.8,0.5,1.3,0.7,1.7c0.2,0.4-0.2,0.9-0.7,1.4c-0.5,0.5,0.7,1.6,0.8,2.1c0.2,0.5-1.4,1-1.9,1.4c-0.5,0.4-0.2,1.8-0.1,2.5
			c0.1,0.8,0.4,0.9,1.2,1c0.8,0.1,1.7-0.5,1.9-0.7c0.3-0.2,0.5,0,1.5,0.3c1,0.3,0.6-0.5,0.9-0.8c0.3-0.4,1,0.4,1.2,0.8
			c0.2,0.5,1.9-0.7,1.9-0.7s0.6-1.9,2-5.8c1.3-3.8,7.1-8.7,7.1-8.7l-3.3-3.1c0,0-0.2-0.9-0.2-1.6c0-0.6-1.1-0.1-1.4,0.2
			c-0.3,0.3-1.7,0.5-2.3,0.4c-0.7-0.1-1.9-0.7-2.3-1.1c-0.5-0.5-1.1-0.1-1.8-0.1c-0.6,0-3.4-0.6-3.4-0.6s-0.6-0.8-0.9-1.2
			c-0.3-0.5-2.4-0.5-2.9-1.1c-0.5-0.6-1.3-1.6-1.9-2.6c-0.6-1,0.9-1.9,1.3-2.1c0.4-0.3,0.3-1.3-0.1-1.8c-0.4-0.5-0.6-1.3-0.6-1.8
			c0-0.5,1.3-1.6,1.9-2.1c0.7-0.6,0.1-1.2-0.6-2c-0.7-0.8-2.6,0.2-3.4,0.4c-0.7,0.2-1.3-1.9-1.3-2.1s0.5-1,0.8-1.4
			c0.4-0.4-1.2-1.5-1.9-1.9c-0.6-0.5-0.8-1.3-0.6-1.7c0.3-0.4,3.5-1.3,3.5-1.3l0.1-1.3L35,47.2l-0.5-1.5l1.8-1.3c0,0,0,0,0,0l0.1,0
			l3.9-2.4l0.4-1.3l2.6-1.6l-0.5,1.8l4.2,0.3h0l-0.1,6.4c0,0-0.1,2.1,1.7,2.5c1.7,0.4,2.1,0.6,2.1,0.6l3.1,8c0,0,0.3,1.4,0.3,2.2
			c-0.1,0.8-0.2,2.6,0.8,3.3c1,0.7,2,1.3,2,1.3L56.6,69l3,1.2l0.5,1l5.6,0.9l3.6-1.6l0.5,1.3l0.8-0.3l0.1,0.1c0,0,4.6,5.6,5.8,6.2
			c1.2,0.6,2.4,1.1,2.4,1.1s0,3.7,0.4,4.8c0.4,1.1,12,29.2,12,30c0,0.8-0.1,2.1-1.8,2.3l1.3,1.8l6.6-0.3l1.2,2.6
			c0,0-4.1,3.3-3.5,7.3c0.6,4,1.8,5.8,2.1,6.7c0.3,0.9,5.8,11.5,6.5,15.2c0.7,3.7,1.2,11.3,2.1,13.3c0.8,1.9,7.2,13.9,7.2,13.9
			l-3.5,2.3l-0.1,0.1c-1-1.1-2.3-1.9-2.9-2.3c-0.9-0.6-3.1-2-5.9-4.1c-2.8-2.1-4.9-2-6.6-1.9c0,0-0.9,0-2.6,0.6
			c-1.7,0.7-1.5,5.3-1.4,12.1c0.1,6.8-5.1,9.7-8.9,11.5c-3.8,1.8-8-2-10.4-4c-2.4-2-0.2-3.9,0.2-4.3c0.3-0.4,3.5-1.8,5.8-2.2
			c2.3-0.4,4.2-2.8,5.3-3.9c1.2-1.1,2.3-4.7,2.4-5.6c0.1-0.9-0.6-2.3-1.2-3.4c-0.6-1.1-1.8-3.3-2.7-5.3c-0.9-2-2.1-3.2-3.8-3.4
			s-4.4,1.6-7.5,2.4c-3.1,0.8-11.7-1.2-11.7-1.2l-2,2.9c-2.2,0.8-10.7,1.3-10.7,1.3l-2-1.1l-4.8,0.3l-2.3-2.2
			c0.1-4.4,0.4-11.9,0.4-11.9l-3.8,2.6l-0.4,2C31.8,157.2,27.8,161.1,27.7,161.6z"/>
	</g>
	<g>
		<path class="st0" d="M132.9,6.1l1,8.7l2.6,0.3l0.1,4.9l-1.5,0.8l-0.3,1.7l-2.1,0.3c0,0,0.1,4.5-0.4,7.6
			c-0.6,3.1-2.2,12.7-2.2,12.7s9.5-2.3,13.5-1.4c4,0.9,18.8,8.4,21.5,9.4c2.8,1,13.8,4.4,23.5,4.7c9.7,0.3,13.6,0.8,15.5,1.8
			c2,1,10.4,7.8,11.9,9.3c0.3,0.3,1.8,1.7,4,3.7l-2.2,2.2l0.3,1.8l-3.3,1.4l-2.8-1.8l-0.6,1.2l1,0.8l-6.4,6.3l0.6,0.8l-4.4,3.6
			l9.8,0.1c0,0,0.3,2.3,0.5,3.5c0.2,1.3,0.9,5-0.9,7c-1.8,2-1.8,2-1.8,2l-0.4,0.4l-5.2-0.6l-1.8-0.9l-1.8,0.8c0,0-1.6-1.8,0.1-2.9
			l-1.4-1.7l0.8-0.8l-0.9-2l-2.8-1l-1.3,1.8l2.8,1.6l-1.5,2.2l1.8,1.2l-6.6,6.5c0,0-0.2,2.1-1.1,2.6c-0.9,0.5-2.1,0.8-2.9,0.3
			c0,0,0.6,10.2,0.1,12.1c-0.5,1.9-2.8,6.9-3.3,8.1c-0.5,1.2-6.6,14.6-6.6,14.6v9.3c-1.9-0.9-2.2-2.3-2.5-3.1c-0.4-1-2-1.9-3-2.6
			s-2.4-1.8-2.4-1.8l-0.4,5.6l-9-1.3c0,0,0.3,5.1,0.1,6.3c-0.1,1.1-1,2.4-1,2.4l-1.4,0.1l-3.8-1.9l-1.4,0.1l-1.5-6.5l-5.4,0.4
			l-2.1-2.6c0,0-0.1-4.1-0.1-5.6c-0.1-1.5-1.6-6.2-1.6-6.2l3.5-1l-3.5-2.5c0,0-1.1-5-1.3-6.3c-0.3-1.3-1.1-2.7-1.3-3.5
			c-0.2-0.8,0.2-5.7,0.2-7.7c0-2,1.9-8,1.9-8c-0.3-0.9-2.4-8.7-2.7-10c-0.3-1.3-0.1-7.8-0.1-8.8c0.1-1-2.4-11.5-2.7-13.4
			c-0.3-1.9-1.1-11.2-1.5-13.5c-0.3-2.3-4.1-4.3-4.1-4.3s-0.3,0.1-0.6,0.1c-0.3,0-1.4-1.3-1.9-1.7c-0.5-0.4-6.7-4.4-6.7-4.4
			l-1.6-4.3c0,0,0,0,0,0l-8.6-30.8l12.5-2.7L121.4,4l6.6-1.6l2.4,2.4l7.7-4.5l1.3,2.2l2-0.2c0,0,2.5,4.9-0.6,4.8
			c0,0-1.6-0.1-2.4-0.7C137.5,5.8,132.9,6.1,132.9,6.1z"/>
	</g>
	<g>
		<path class="st0" d="M144.2,146l2.1,2.6l-1.4,9.6c0,0-1.5,4.6-4.9,5c-3.4,0.4-14.3,2.1-14.3,2.1l-4.6,5.4l-0.9,3l-6.4,3.5l-1-1.3
			c0,0-6.3-12-7.2-13.9c-0.8-1.9-1.4-9.6-2.1-13.3c-0.7-3.7-6.2-14.3-6.5-15.2c-0.3-0.9-1.5-2.7-2.1-6.7c-0.6-4,3.5-7.3,3.5-7.3
			l-1.2-2.6l-6.6,0.3l-1.3-1.8c1.7-0.2,1.8-1.4,1.8-2.3c0-0.8-11.6-28.9-12-30c-0.4-1.1-0.4-4.8-0.4-4.8s-1.3-0.5-2.4-1.1
			c-1.2-0.6-5.8-6.2-5.8-6.2l-0.1-0.1l0.6-0.2l1.7-4.1c11.2,1.6,17.7-3.4,20-4.8c2.3-1.4,16.3-11.5,20.7-14.8
			c4.3-3.1,6.3-2.6,6.5-2.5l1.6,4.3c0,0,6.3,4,6.7,4.4c0.5,0.4,1.5,1.7,1.9,1.7c0.3,0,0.6-0.1,0.6-0.1s3.7,2.1,4.1,4.3
			c0.3,2.3,1.1,11.6,1.5,13.5c0.3,1.9,2.8,12.4,2.7,13.4c-0.1,1-0.2,7.5,0.1,8.8c0.3,1.3,2.3,9.1,2.7,10c0,0-1.9,6-1.9,8
			c0,2-0.4,6.9-0.2,7.7c0.2,0.8,1,2.3,1.3,3.5c0.3,1.3,1.3,6.3,1.3,6.3l3.5,2.5l-3.5,1c0,0,1.5,4.7,1.6,6.2
			C144.2,141.9,144.2,146,144.2,146z"/>
	</g>
	<g>
		<path class="st0" d="M24.9,2.9l2,2.4l1.3,0.4l2.3-4.1l7.8,0.2l1.3,0.6c0,0-0.4,1-0.6,1.6c-0.2,0.6,2.8,2.5,3.6,2.4
			c0.8-0.1,0.4-0.6,0.4-1.4c0-0.8,0.5-0.5,1.2-0.4C45,4.6,44.7,4.4,45,4c0.3-0.5,0.5,0.1,1.5,0.7c1,0.6,0.6,0.5,1.2,0.5
			c0.5,0.1,0.3,0.8-0.1,1.5c-0.4,0.6,0.1,1,1,1.5c0.9,0.5,2-0.9,2.5-1.3c0.5-0.4,2.7-0.8,3.8-1.1c1.1-0.3,0.6-1.5,0.5-2.1
			C55.3,3,56.5,3.5,56.9,4C57.3,4.4,58,3.4,58,3.4l1.8-0.1l2,2.4l0.5,0.7v2.9l-1.7,0.1c0,0-0.8,1.9-3.2,1.7l-2.8,6.9
			c0,0,2.2,4.6,2,5.5c-0.2,0.9-0.8,2.6-0.5,3.1c0.3,0.5,1.1,2.7,0.9,3c-0.2,0.4-1.1,1.6-1.8,1.1c-0.7-0.6-1-1.5-1-1.5l-3.6-0.4
			L49,33l3,4.3L47,41v0.1h0l-4.2-0.3l0.5-1.8l-2.6,1.6L40.2,42l-3.9,2.4l-0.1,0c-0.1-0.4-1.1-4.6-1.7-5.4c-0.6-0.9,1.9-2.1,1.9-2.1
			l-0.4-1.2c0.8-0.9,4.3-2.1,4.3-2.1l-10.7-7.9c0,0-2.9,2.3-3.4,2.7c-0.5,0.4-1.9,0.5-2.8,0.3c-0.9-0.3-0.6-1.2-0.8-2
			c-0.2-0.8-3.5-4.1-3.5-4.1l0.7-2.9l3.5-3l3.3,2l1.6-1.8l-5.4-6.2h-1.3l-1.7-4.4l0.1-2.9l2.9-2.4l3.3-0.4l0.6,1.1L24.9,2.9z"/>
	</g>
	<path class="st1" d="M333.8,218.2c-1.8,0-3.3-2.7-3.3-2.7l-4.5,0.9l-0.9-4.4c-0.1-0.4-0.4-0.8-0.7-1.4c-1.1-1.8-3.1-4.1-4-4.9
		c-1.2-1-5.5-2.9-5.5-2.9s-2,0.3-2.7,0.5c-0.7,0.3-1,2.2-1.3,3.1c-0.3,0.9-3.8,2.2-3.8,2.2l-0.7-0.7l-4.4,1.7l-2.5,0.2l-1.5,0.8
		l-1-1.1l-0.8,1.4l-0.2,2l-4.1-0.3l0.2-1.9l-4.8-0.1c0,0-3.3-0.9-5-2.4c-1.8-1.5,1.2-8,2.7-9.8c1.5-1.8,5.3-2.2,5.3-2.2l3.1-3.8
		l5.3,0.5l-0.9-5.4l-3.5-1.2c-5.9,3.6-18.4,4.5-18.4,4.5s-0.6-16.2-0.6-18.2c0.1-2-0.1-8.6-0.1-8.6s-1.8-34.2-2.4-39.8
		c-0.5-5.6-6.1-11.2-6.1-11.2l-23-21c0,0-15.9-14.7-23.5-21.9c-2.2-2-3.7-3.4-4-3.7c-1.5-1.5-9.9-8.2-11.9-9.3
		c-2-1-5.9-1.5-15.5-1.8c-9.7-0.3-20.7-3.7-23.5-4.7c-2.8-1-17.6-8.5-21.5-9.4c-4-0.9-13.5,1.4-13.5,1.4s1.6-9.5,2.2-12.7
		c0.6-3.1,0.4-7.6,0.4-7.6l2.1-0.3l0.3-1.7l1.5-0.8l-0.1-4.9l-2.6-0.3l-1-8.7c0,0,4.5-0.3,5.3,0.3c0.8,0.6,2.4,0.7,2.4,0.7
		c3.1,0.1,0.6-4.8,0.6-4.8l-2,0.2L138,0.3l-7.7,4.5l-2.4-2.4L121.4,4l2.7,7.6l-12.5,2.7l8.6,30.8c0,0,0,0,0,0
		c-0.2-0.1-2.2-0.6-6.5,2.5c-4.5,3.3-18.4,13.4-20.7,14.8c-2.3,1.4-8.8,6.4-20,4.8l-1.7,4.1l-0.6,0.2l-0.8,0.3l-0.5-1.3L65.7,72
		l-5.6-0.9l-0.5-1l-3-1.2l0.1-3.7c0,0-1-0.6-2-1.3c-1-0.7-0.8-2.5-0.8-3.3c0.1-0.8-0.3-2.2-0.3-2.2l-3.1-8c0,0-0.3-0.1-2.1-0.6
		c-1.8-0.4-1.7-2.5-1.7-2.5l0.1-6.4V41l5-3.6L49,33l1.7-4.2l3.6,0.4c0,0,0.4,0.9,1,1.5c0.7,0.6,1.6-0.7,1.8-1.1
		c0.2-0.3-0.6-2.5-0.9-3c-0.3-0.5,0.3-2.2,0.5-3.1c0.2-0.9-2-5.5-2-5.5l2.8-6.9c2.4,0.1,3.2-1.7,3.2-1.7l1.7-0.1V6.4l-0.5-0.7
		l-2-2.4L58,3.4c0,0-0.8,1-1.1,0.6c-0.4-0.5-1.6-0.9-1.5-0.3c0.1,0.6,0.6,1.9-0.5,2.1c-1.1,0.3-3.3,0.8-3.8,1.1
		c-0.6,0.4-1.6,1.8-2.5,1.3c-0.9-0.5-1.4-0.8-1-1.5c0.4-0.7,0.6-1.4,0.1-1.5c-0.6-0.1-0.2,0.1-1.2-0.5c-1-0.7-1.2-1.2-1.5-0.8
		c-0.3,0.5,0,0.6-0.7,0.6c-0.8-0.1-1.2-0.5-1.2,0.4c0,0.8,0.5,1.3-0.4,1.4c-0.8,0.1-3.8-1.9-3.6-2.4c0.2-0.6,0.6-1.6,0.6-1.6
		l-1.3-0.6l-7.8-0.2l-2.3,4.1l-1.3-0.4l-2-2.4l1.8-1.2l-0.6-1.1l-3.3,0.4l-2.9,2.4l-0.1,2.9l1.7,4.4h1.3l5.4,6.2l-1.6,1.8l-3.3-2
		l-3.5,3l-0.7,2.9c0,0,3.4,3.3,3.5,4.1c0.2,0.8-0.1,1.8,0.8,2c0.9,0.3,2.3,0.1,2.8-0.3c0.5-0.4,3.4-2.7,3.4-2.7l10.7,7.9
		c0,0-3.5,1.2-4.3,2.1l0.4,1.2c0,0-2.4,1.2-1.9,2.1c0.5,0.9,1.6,5,1.7,5.4c0,0,0,0,0,0l-1.8,1.3l0.5,1.5l1.5,0.5L36.4,49
		c0,0-3.3,0.9-3.5,1.3c-0.3,0.4-0.1,1.2,0.6,1.7c0.7,0.5,2.2,1.6,1.9,1.9c-0.4,0.4-0.8,1.1-0.8,1.4s0.6,2.3,1.3,2.1
		c0.8-0.2,2.7-1.1,3.4-0.4c0.6,0.7,1.2,1.4,0.6,2c-0.6,0.6-1.9,1.7-1.9,2.1c0,0.5,0.3,1.3,0.6,1.8c0.4,0.5,0.5,1.5,0.1,1.8
		c-0.4,0.3-1.9,1.1-1.3,2.1c0.6,1,1.4,2,1.9,2.6c0.5,0.6,2.6,0.6,2.9,1.1c0.3,0.5,0.9,1.2,0.9,1.2s2.8,0.6,3.4,0.6
		c0.6,0,1.3-0.4,1.8,0.1c0.5,0.5,1.7,1,2.3,1.1c0.6,0.1,2-0.1,2.3-0.4c0.3-0.3,1.4-0.8,1.4-0.2s0.2,1.6,0.2,1.6l3.3,3.1
		c0,0-5.8,4.9-7.1,8.7c-1.3,3.8-2,5.8-2,5.8s-1.8,1.2-1.9,0.7c-0.2-0.5-0.9-1.2-1.2-0.8c-0.3,0.4,0.1,1.1-0.9,0.8
		c-1-0.3-1.2-0.5-1.5-0.3c-0.3,0.2-1.1,0.8-1.9,0.7c-0.8-0.1-1.1-0.3-1.2-1c-0.1-0.7-0.4-2.1,0.1-2.5c0.5-0.4,2-0.9,1.9-1.4
		c-0.2-0.5-1.3-1.6-0.8-2.1c0.5-0.5,0.8-1,0.7-1.4c-0.2-0.4-1.1-0.8-0.7-1.7c0.5-0.8,0.7-1.7,0.7-1.7l-1-1c0,0-2.7,0.6-3,0.6
		c-0.3,0-1.6-0.5-2.3-0.5c-0.7,0-3.6,0.6-3.8,0.9c-0.2,0.4,0.3,2.8-0.6,2.9c-0.9,0.1-1.9,0.3-2.5,0.3c-0.6,0-3.2-0.3-3.3,0.3
		c-0.2,0.6,0.2,1-0.4,1.3c-0.6,0.3-2.6,2-2.7,3c-0.1,1,0,5.4-0.5,6.3c-0.5,0.9-0.6,2.4-1.4,2.8c-0.8,0.4-2,0.8-2,0.8l0.1,1.5
		c0,0,5.9,0.4,7.5,1.8c0,0-3.8,1.5-3.8,2c0,0.6-0.2,1.8,0.3,2.2c0.5,0.5,2.4,2.1,2.4,2.1l-2.5,1.3l0.1,1.8l2.8,0.2l0.8,3.1l-1.5,2.4
		c0,0,2.7-0.2,2.7,0.7c0,0.9-0.5,2.6-0.1,3.2c0.4,0.6,1.5,1.3,2,0.5c0.5-0.8,0.1-2.9,0.1-2.9l1.4-0.2c0,0,1.2,3.3,2,3.1
		c0.7-0.3,1.1-0.9,1.7-2c0.6-1,3.2-4,4.5-4.5c1.3-0.5,2.6-1,2.6-1s4.5-1,7.2,0.2c0,0-1.4,9.9-2.8,16.7l-3.5,0.4l-1.4,2.1
		c0,0-1.6-3-3.2-3c-1.6,0-6.2-1.1-8.3,0c-2.1,1.1-8.3,7.6-8.3,7.6l-20.3-2.1v8.1l1.8,0.5L1.9,149l5.1,0.2l-0.5,3.7l11.3,5.3
		l-0.9,2.3c0,0-4.6,0.5-5.1,2.3c-0.5,1.8-0.5,4.8-0.5,4.8s-3.2-0.5-3,1.2c0.2,1.6,0.5,3,0.5,3l9.3-1.3l-0.1-3.5l3.4,0.7l-1,1.4
		l3.8,0.6v-1.1l1.7-0.5c0,0,0.3-1,0.4-1.7c0.1-0.7-0.3-0.5-0.7-0.6c-0.4-0.1-0.5,0.3-0.9,0.7c-0.4,0.4-0.4-1.3-0.4-1.6
		c0-0.3,0.8-0.8,1.2-1.1c0.4-0.3,1.3,0.7,1.5,1.1c0.3,0.4,0.7-0.1,0.8-0.5c0.1-0.4-0.1-2.5-0.1-3c0.1-0.5,4-4.3,4-4.3l0.4-2l3.8-2.6
		c0,0-0.3,7.5-0.4,11.9c0,1.3-0.1,2.3-0.1,2.8c0,2.2-0.2,19.5,0.1,21.6c0.4,2.2,2.7,10.5,3.7,14c0.6,2.1,2.2,8,3.6,12.7l-7.3,2.1
		c0,0,2.3,2.5,2.1,4.4c-0.2,1.9-0.7,4.6-0.7,4.6l-4.6-0.7l0.2-3l-4.6,4.6l-1.1,6.7l3.9,6.2h-5.8l-1.4-7.4l-6.9,11.5l10.6,5.1
		l1.8-3.7l3.2,2.8l8.3-13.4l2.8,2.5l4.6-5.3l-3.5-2.3l0.3-8.8c1.1,2,8.4,11.7,9.7,13.3c1.3,1.6,4.5,6.7,4.3,8.7
		c-0.2,1.9,0,3.5,0,3.5l1,0.9l-4.6,3.1l0.8,1.1c0,0-2.7,2.1-2.4,5c0,0,1.5,0.4,1.9,0.8c0.4,0.4,3.1,3,3.6,4c0,0-6.3,3.5-8.4,3.5
		c-2.2,0.1-3.8-0.1-4.3-0.8c-0.4-0.8-1.3-2.2-2.3-2.4c-1-0.2-3.1,0.3-3.1,1.3c0,1-0.3,3.3-0.8,3.5c-0.6,0.2-2.9,0.6-3.2-0.6
		s-0.4-3.2-0.4-4c0-0.8,0.1-2.7-0.2-3.1c-0.4-0.4-0.7-0.8-0.7-0.8l-5.3,1c0,0-0.2,1-0.8,1.8c-0.6,0.8-2.1,1.7-2.1,1.7l-1.5-1.8
		c0,0-1.2,2.6-1.7,3c-0.5,0.4-1.8,1.1-1.5,1.6c0.3,0.5,1.8,3.1,1.5,3.7c-0.4,0.6-1.1,0.8-1.6,1.3c-0.5,0.4-1.9,1-2.2,1.3
		c-0.3,0.3-1.8,2.3-2.2,2.8c-0.4,0.5-2,2.4-1.7,3.1c0.3,0.6,1.1,2.4,0.6,3c-0.6,0.6-1.5,1.3-1.3,2.2c0.2,0.8,0.8,1.7,1.4,1.8
		c0.6,0.1,1.8,1.7,1.9,2.1c0.1,0.3,0.4,1.3,0.6,1.4c0.2,0.1,2,1.2,2,1.2s1.5-0.4,2-0.8c0.6-0.3,2-1.7,2-1.7l2.8,1.7l1.3,0.1l1.8,1.3
		l-0.3,1.7l1.5,1.7l1.5-0.8l1.5,1.3l-0.2,2l4,3.6l0.7-1l-0.8-1.1l5.3-5.9l1,0.2l-0.5,2.5c0,0,3.1,1,4.9,0.3l0.4-2c0,0,4,0.2,5.5,1.2
		l0.8-3.6c0,0,0.3-1.8,0.6-2.2c0.3-0.3,1.6-0.6,2.1-1c0.5-0.4,0.8-2.6,0.8-2.9c0-0.3,0.1-6.6,0.1-6.6s-0.9-0.3-0.9-0.7
		c0-0.4-0.4-1.2-0.6-1.6c-0.1-0.4,0.9-1.5,1.2-1.9c0.3-0.4,0-2.2,0-2.2s-0.4-0.6-1.1-1.3c-0.7-0.7,0.1-3.3,0.1-3.3s2.2-0.7,3-0.7
		c0.8,0,5.2-0.3,5.2-0.3l13.3,20.6l20.6,31.9c0,0,4.3,5.5,9.5,7.8c5.2,2.3,14.1,6.1,14.1,6.1s0.5,0.9,0.7,1.2
		c0.2,0.3,0.2,0.6,0.5,0.8c0.4,0.2,0.8,0.8,0.9,1.2c0.1,0.3,1,1.8,1.5,1.9c0.6,0.1,1.5,0.6,1.4,1c-0.1,0.4-1.1,1-1.3,0.7
		c-0.1-0.3-1.4-1.3-1.7-0.8c-0.4,0.5-1,1.2-1.5,1.3c-0.6,0.1-2-0.3-2.5-0.3c-0.5-0.1-2.1,0.2-1.9,0.8c0.2,0.6,1.5,2.8,0.9,3
		c-0.6,0.2-1.3,1-0.9,1.3c0.4,0.3,3.2,1.8,3.8,1.9c0.6,0.1,1.7,0.6,1.7,0.6s-0.1,0.9,0.2,1c0.3,0.1,1.7,1,1.7,1l0.3,3.4l-0.9,0.6
		l0.4,1.1l2,0.7l-1.4,5.8l-0.7-0.1c0,0-1.8,2.6-3.8,2.2c-2-0.5-7.5-2.7-7.5-2.7s-6.8,5.4-7.3,5.8c-0.5,0.5-1.5,2.2-2.2,3.1
		c-0.7,1-3.6,2.9-5.4,3.7c-1.9,0.8-4.7,1.2-5.7,1.2c-0.9,0-1.6,0.2-2.2,0.4c-0.6,0.2-3.6,1.4-3.6,1.4s-0.3,1.7-0.6,2.5
		c-0.3,0.8-0.6,1.8-0.3,2.2c0.4,0.3,1.1,1.3,1.1,1.7c0,0.4-0.2,2.5,0.3,2.9c0.5,0.4,1.2,0.4,1.9-0.1c0.7-0.5,1.7-1.9,2.3-1.9
		c0.6,0,2,0.1,2.5,0.5c0.6,0.3,3,1.7,4.1,1.7c1.1,0,4.5,0.1,5.2,0.2c0.7,0.1,3.8,1,4.3,1.5c0.4,0.4,0.9,1.6,1.1,1.9
		c0.2,0.3,0.9,0.9,1.7,1.1c0.8,0.2,2.5,0.6,2.9,1.2c0.4,0.6,5,5.2,5,5.2s-0.1,2-0.7,2.2c-0.5,0.3-1.2,0.7-1.2,1.1
		c0,0.4-0.3,2.1-0.3,2.1s-2.6-0.1-2.6,0.4c0,0.5-0.5,3.3,0,3.4c0.5,0.1,0.8,0.4,1.3-0.1c0.6-0.5,0.6-1.1,1.1-1
		c0.4,0.1,1.8,0.8,2.1,0.8c0.3,0,0.8-0.4,1.1-0.3c0.3,0.1,1.5,0.3,1.9,0.2c0.4-0.1,2.7-1.1,3.3-1.1c0.6,0,2.6-0.1,2.6-0.1l0.7-2.1
		l-6.7-4.3c0.4,0.1,6.3,2,9.3-3.4l7.2-0.1l-2.8,15.5l9.9,7.3l-0.7-1.9l1-0.7l0.9,1.3l3-2.4l0.3-1.1l1.5-1.5l-0.1-2.2l0.5-1.4
		l-3.6-3.2l0.2-2.3c0,0-6.8-8.9-7.2-9.5c-0.3-0.5-1.8-1.4-1.8-1.4s1.9-13.5,2-13.9c0.1-0.4,1.9-13,2.2-14.8c0.3-1.8,1.2-4,1.8-5
		c0.6-1,6.5-5.3,6.5-5.3s-0.7-1.8-1.2-3.3c-0.2-0.5-0.3-1-0.4-1.4c-0.4-1.6,0.7-2.6,1.3-2.9c0.6-0.3,1.5-0.3,2.1-0.2
		c0,0,24.8,1.9,30,2.3c5.3,0.4,8.2-2.3,8.2-2.3s17.2-11.5,24.7-16.5s27.1-24,27.9-24.7c0.4-0.4,1.8-1.6,3.1-2.9
		c1.2-1.1,2.3-2.2,2.6-2.6c0.7-0.8,11.7-13.1,17.1-19.9c5.4-6.8,3.7-13.3,3.1-16c-0.6-2.8-3.6-16.2-3.6-16.2l11.9,9.8l4.3-12.6
		l-2.2-2.7l1.8-2.5l-3.5-4.7l1.1-1.4l0.1-0.1l5.8,5.1c0,0,7.3-8.4,7.7-8.8c0.4-0.3,2.4-0.4,3.2-0.4c0.5,0,3.1-0.6,5.2-1l0.3,4.1
		l4.8,0.3c0,0-0.3,3.9-0.3,6.2c0,2.4,2.1-1.2,4.1-2.1c2.1-0.9-1.2,5.6-2.1,6.5c-0.9,0.9-1.8,1.5-3.3,3.3c-1.5,1.8,0.3,4.1,1.5,4.4
		c1.2,0.3,1.2,4.5,1.2,4.5s10.1,0.3,13.4,0c3.3-0.3,10.4,2.4,10.4,2.4s-1.2-4.5-1.5-6.8c-0.3-2.4,0-4.4,0-6.8s-3.6-3-5.3-4.2
		c-1.8-1.2-1.8-3.3-1.8-3.3l7.7-1.5c0-2.1-4.2-3.6-6.2-4.5c-2.1-0.9-2.1-4.1-2.1-4.1l11.3,2.1c0,0-0.6-1.2-1.8-2.7
		c-1.2-1.5,0.6-1.5,2.1-2.7C338.8,219.4,335.6,218.2,333.8,218.2z M283.7,133.8l2.4,2.5l2.6-0.8l-0.1-1.1l1.3-0.4l0.1-1.7l3.5-1.7
		c0,0,0.4-3.8,1.1-3.8c0.8,0,3.8-0.5,4.3,0c0.5,0.5,1.2,0.6,1.1,1.3c-0.1,0.7-0.5,1.3,0,1.4c0.5,0.1,2.9,0.3,2.9-1.9
		c0-2.2-1.3-2.4-2.6-2.9c-1.3-0.4-2.8-0.6-2.8-0.6l-0.4-1.3l-4,1.3l-0.5-1.3l-2.9,0.6c0,0-1.1-1.4-0.9-2.2c0.2-0.8,2.3-1.7,2.3-1.7
		l-0.6-1l-3.3,1.4l0.3,2.2c0,0-4.8,1.7-5.3,2.2c-0.5,0.5-1,1.2-1,1.2l-5.4,4.3l5.7,6.3L283.7,133.8z"/>
</g>
<g id="outline">
	<g id="okrug_1_">
		<g>
			<g>
				<path class="st1" d="M109.4,178.3l3.5-2.3l1,1.3l6.4-3.5l0.9-3l4.6-5.4c0,0,10.9-1.8,14.3-2.1s4.9-5,4.9-5l1.4-9.6l5.4-0.4
					l1.5,6.5l1.4-0.1l3.8,1.9l1.4-0.1c0,0,0.9-1.3,1-2.4s-0.1-6.3-0.1-6.3l9,1.3l0.4-5.6c0,0,1.4,1,2.4,1.8s2.6,1.6,3,2.6
					s0.6,2.6,3.5,3.5s18,5.9,18,5.9s5.1-0.1,7,0.3s2.9,1.1,4.1,3.4s5.6,10.4,4.9,12.6s-3.4,10.1,0.9,12.3s9,4.8,10.4,6.4
					s3.1,4,4.1,4.1s5.1,1.1,6.9,2.4s8.6,7.3,10.5,8.1s14.3,8.5,16.4,9.5s18.1,11.8,21,14.5"/>
			</g>
			<g>
				<path class="st1" d="M209.3,163.4l-8,7.5l-2.5-2.4l-1.9,0.3c0,0-0.6,2.5-1,3.8s-1.1,4.9-1.1,4.9l-5.9,0.3c0,0-1.3,0.6-1,1.6
					s0.9,3,0.9,3.5s-0.1,1.3-0.9,2.3l5.3,2.4c0,0,6.7,4.8,8.1,6.4c0,0,0,4.5,0.5,5.1l-2.5,5.8l-5-4.5l0.3,2.5l-3,2.3l-4.4,2.4
					l-2.1-5.1l-2.4,1.4c0,0,1.6,4.1,1.6,5.4s0.3,4.8,0.6,7.1s1.6,8.9,1.5,10.3s-0.4,3.5-0.4,3.5s2.8,0.5,3.1,1.3s0.8,1,1.9,1.3
					s7.8,1.3,9.4,2c1.6,0.8,7,3.3,7.9,5.8s1.6,8.1-1.8,10s-15.9,7.5-16.6,9.6s-1.8,11.9-1.8,11.9s9.1,7.6,11.4,8.9
					c2.2,1.3,8.4,4,10.1,3.9s5.9-1.5,7.6-1.3s7.6,1,9.6,0.3s13.6-6.6,15.1-6.9s3-1.6,2.9,0.9s-0.1,7.1-0.1,8.9s1.5,6.6,1.9,8.6
					s2.5,4,3.6,4.8"/>
			</g>
			<g>
				<path class="st1" d="M131.7,222.1c0,0-10.6,14-11.7,15.2c-1.1,1.2-11.8,11.6-11.8,11.6l5.9,5.5l-7.7,9.6l-25.8,22.3"/>
			</g>
			<g>
				<path class="st1" d="M35.5,164.6l2.3,2.2l4.8-0.3l2,1.1c0,0,8.5-0.4,10.7-1.3l2-2.9c0,0,8.7,2,11.7,1.2c3.1-0.8,5.8-2.7,7.5-2.4
					s2.9,1.4,3.8,3.4s2.1,4.2,2.7,5.3s1.3,2.5,1.2,3.4c-0.1,0.9-1.3,4.5-2.4,5.6s-3.1,3.5-5.3,3.9c-2.3,0.4-5.4,1.8-5.8,2.2
					c-0.3,0.4-2.6,2.3-0.2,4.3s6.6,5.8,10.4,4c3.8-1.8,9-4.8,8.9-11.5c-0.1-6.8-0.3-11.4,1.4-12.1c1.7-0.7,2.6-0.6,2.6-0.6
					c1.8-0.1,3.9-0.3,6.6,1.9s5,3.5,5.9,4.1s3.4,2.1,4,4.3c0,0,1.8,6.9,2.8,8.3c0.9,1.4,5,5.1,8.9,2.3c3.9-2.8,7.5-6.3,9.4-6.9
					c1.9-0.6,7-1.7,7.4,1.9c0.4,3.6,0.1,7.6-2.7,11c-2.8,3.4-7.3,7.3-9.3,8.8s-5.1,3.6-4.3,7.5c0.8,3.9,4.1,10.3,10.3,8.8
					c6.2-1.4,7.8-3.5,7.8-3.5s4.9,6.3,5.4,7.3s3.2,5.8,3.9,7.7s4.1,6.2,4.8,6.8l-0.2,3.8l1.9,1.1l2.3-0.4l0.8,3.5
					c0,0-1.3,1.4-1.3,1.9c-0.1,0.5-0.2,1.2-0.6,1.7c-0.4,0.5-2.7,2-2.8,2.6c-0.1,0.6-0.4,1.1-0.1,1.7c0.3,0.6,0.7,0.8,0.7,0.8l0.1,2
					l2.4,2.6l-2.1-0.3l-0.5,1.5c0,0,2.2,0.9,3.4,1l-3.8,6.1l0.1,13.2c0,0-5.2,0.2-6.7-0.4c-1.4-0.6-5.8-3-5.8-3L142,281
					c0,0,2.3,1.2,1.8,3.3c-0.5,2.1-0.6,2.4-0.6,2.4l-1.6,1.8l-0.3,1.6l4.4,1.1l-2.7,7.6c0,0-2,0.4-2.3,1c-0.3,0.6-1.2,2.2-0.5,2.2
					c0.7,0,1.8-0.9,1.6-0.3c-0.2,0.7-0.6,1.4-0.1,1.6c0.5,0.2,0.8,0.4,0.6,0.8c-0.3,0.3-0.5,0.7-0.5,1.3c0,0.6,0.1,1.1-0.3,1.3
					s-0.6,0.4-0.6,0.9s0.6,3.3-0.3,3.4c-0.9,0.2-2.8,0.3-2.2,1.4c0.6,1.2,0.5,1.9,0.9,1.8c0.4-0.1,0.9-0.3,0.9-0.3l1.3,2l1.5-0.1
					l-1.1,5.2l1.7,0.6c0,0-0.3,1.8-1.5,1.8l-0.9,6.3l0.9,1.8l-1.9,5.2l9.1,3.8l2.9,5.8v2l1.2-0.2"/>
			</g>
			<g>
				<path class="st1" d="M70.7,71.6c0,0,4.6,5.6,5.8,6.2s2.4,1.1,2.4,1.1s0,3.7,0.4,4.8c0.4,1.1,12,29.2,12,30
					c0,0.8-0.1,2.1-1.8,2.3l1.3,1.8l6.6-0.3l1.2,2.6c0,0-4.1,3.3-3.5,7.3s1.7,5.8,2.1,6.7c0.3,0.9,5.8,11.5,6.5,15.2
					c0.7,3.7,1.3,11.3,2.1,13.3c0.8,1.9,7.2,13.9,7.2,13.9"/>
			</g>
			<g>
				<path class="st1" d="M120.2,45l1.6,4.3c0,0,6.3,4,6.7,4.4c0.5,0.4,1.5,1.7,1.9,1.7c0.3,0,0.6-0.1,0.6-0.1s3.7,2.1,4.1,4.3
					c0.3,2.3,1.1,11.6,1.5,13.5c0.3,1.9,2.8,12.4,2.7,13.4c-0.1,1-0.2,7.5,0.1,8.8c0.3,1.3,2.3,9.1,2.7,10c0,0-1.9,6-1.9,8
					c0,2-0.4,6.9-0.2,7.7s1,2.3,1.3,3.5s1.3,6.3,1.3,6.3l3.5,2.5l-3.5,1c0,0,1.5,4.7,1.6,6.2c0.1,1.5,0.1,5.6,0.1,5.6l2.1,2.6"/>
			</g>
			<g>
				<path class="st1" d="M220.1,70.5l-2.2,2.2l0.3,1.8l-3.3,1.4l-2.8-1.8l-0.6,1.2l1,0.8l-6.4,6.3l0.6,0.8l-4.4,3.6l9.8,0.1
					c0,0,0.3,2.3,0.5,3.5s0.9,5-0.9,7s-1.8,2-1.8,2l-0.4,0.4l-5.2-0.6l-1.8-0.9l-1.8,0.8c0,0-1.6-1.8,0.1-2.9l-1.4-1.7l0.7-0.8
					l-0.9-2l-2.8-1l-1.3,1.8l2.8,1.6l-1.5,2.2l1.8,1.2l-6.6,6.5c0,0-0.2,2.1-1.1,2.6s-2.1,0.8-2.9,0.3c0,0,0.6,10.2,0.1,12.1
					s-2.8,6.9-3.3,8.1c-0.5,1.2-6.6,14.6-6.6,14.6v9.3"/>
			</g>
			<g>
				<path class="st1" d="M183.9,207.1l-2.8,0.2c0,0-1-1.7-1.5-2.2l-0.9,0.9l-3.3-1.4c0,0-1.1,3.8-1,5.9l-1,0.3l-2.5-1.3l-0.5,1.8
					c0,0-0.9-0.9-2.2-0.5c-1.3,0.4-8.2,2.2-8.2,2.2l-0.3-0.8l-2.3-0.3l-0.3,1.7l-4.7-1.6l-8.8,10.6"/>
			</g>
			<g>
				<polyline class="st1" points="47,41.1 42.7,40.8 43.2,39 40.5,40.6 40.2,42 36.3,44.4 				"/>
			</g>
			<g>
				<path class="st1" d="M324.3,210.8l-3.6,4.4c0,0-5-1.2-5.3,1.2c-0.3,2.4-0.9,6.5-3.3,7.7c-2.4,1.2-7.1,1.2-7.1,1.2"/>
			</g>
		</g>
	</g>
</g>
<g id="Слой_4">
	<circle id="Ellipse_4_copy_3" class="st2" cx="111.5" cy="176" r="9.5"/>
	<circle id="Ellipse_4_copy_3_1_" class="st2" cx="141.2" cy="207.4" r="9.5"/>
	<circle id="Ellipse_4_copy_3_2_" class="st2" cx="106.2" cy="222.1" r="9.5"/>
	<circle id="Ellipse_4_copy_3_4_" class="st2" cx="196.2" cy="145.8" r="9.5"/>
	<circle id="Ellipse_4_copy_3_3_" class="st2" cx="141.2" cy="306.1" r="9.5"/>
</g>
</svg>
